<svg width="290" height="272" viewBox="0 0 290 272" fill="none" xmlns="http://www.w3.org/2000/svg">
<path d="M158.543 215.558H92.0239V266.864H158.543V215.558Z" fill="#EBEBEB"/>
<path d="M141.88 266.506C141.791 266.506 141.714 255.068 141.714 240.959C141.714 226.85 141.791 215.412 141.88 215.412C141.969 215.412 142.046 226.85 142.046 240.959C142.046 255.068 141.969 266.506 141.88 266.506Z" fill="#E0E0E0"/>
<path d="M152.903 255.188H147.807V260.956H152.903V255.188Z" fill="#FAFAFA"/>
<path d="M119.877 215.693H112.321V226.64H119.877V215.693Z" fill="#E0E0E0"/>
<path d="M119.877 255.764H112.321V266.711H119.877V255.764Z" fill="#E0E0E0"/>
<path d="M279.249 202.695H195.37V267.388H279.249V202.695Z" fill="#EBEBEB"/>
<path d="M258.229 266.928C258.14 266.928 258.063 252.513 258.063 234.725C258.063 216.938 258.14 202.523 258.229 202.523C258.318 202.523 258.395 216.938 258.395 234.725C258.395 252.513 258.325 266.928 258.229 266.928Z" fill="#E0E0E0"/>
<path d="M272.133 252.66H265.702V259.928H272.133V252.66Z" fill="#FAFAFA"/>
<path d="M230.485 202.861H220.956V216.663H230.485V202.861Z" fill="#E0E0E0"/>
<path d="M230.485 253.388H220.956V267.19H230.485V253.388Z" fill="#E0E0E0"/>
<path d="M37.3846 204.598C40.7824 202.848 44.7806 202.618 48.5489 203.244C50.5735 203.576 52.6812 204.183 54.0607 205.703C55.4403 207.223 55.6958 209.899 54.1182 211.208C53.1729 211.988 51.8636 212.103 50.6374 212.09C47.6866 212.051 44.4166 211.534 42.0598 213.31C40.7122 214.325 39.818 216.005 38.2277 216.503C36.6374 217.001 34.881 216.062 34.0507 214.645C33.2826 213.166 33.1133 211.448 33.5781 209.848C33.7661 208.739 34.2074 207.689 34.8676 206.778C35.5278 205.867 36.3892 205.121 37.3846 204.598Z" fill="#EBEBEB"/>
<path d="M29.6053 189.583C31.681 192.547 35.7175 191.57 37.5888 189.756C39.4602 187.942 40.2521 185.323 40.9675 182.826C42.6153 177.11 44.2695 171.113 43.0496 165.294C42.7559 163.53 41.98 161.881 40.8078 160.53C40.2143 159.866 39.4578 159.369 38.6131 159.088C37.7684 158.807 36.8649 158.751 35.9921 158.926C33.9547 159.463 32.6901 161.481 31.7768 163.353C29.084 168.947 27.6744 175.072 27.6509 181.28C27.6509 184.174 27.9766 187.201 29.6053 189.583Z" fill="#EBEBEB"/>
<path d="M23.9085 193.837C26.163 191.161 26.591 187.265 25.5882 183.912C24.5855 180.559 22.3182 177.71 19.7059 175.379C16.6336 172.646 13.0586 170.538 9.1804 169.171C7.67733 168.564 6.06061 168.289 4.44135 168.366C3.63358 168.412 2.84934 168.655 2.15694 169.074C1.46454 169.492 0.884971 170.074 0.468729 170.768C-0.642584 172.882 0.42402 175.443 1.57365 177.538C3.59817 181.224 5.90878 184.745 8.48423 188.07C10.56 190.739 12.955 193.377 16.091 194.584C19.2269 195.791 22.5353 195.651 24.2087 193.46" fill="#EBEBEB"/>
<path d="M29.465 234.304C29.5759 233.865 29.6401 233.415 29.6566 232.963C29.7524 231.979 29.8674 230.747 30.0143 229.284C30.1973 227.474 30.4723 225.675 30.8382 223.894C31.3181 221.715 31.9738 219.579 32.7989 217.507C33.6082 215.448 34.7025 213.513 36.0498 211.759C37.1513 210.332 38.5534 209.165 40.1566 208.342C41.2469 207.804 42.4151 207.442 43.6183 207.269C44.0712 207.251 44.5208 207.185 44.9595 207.071C44.5074 207.021 44.0512 207.021 43.5991 207.071C42.3497 207.165 41.1274 207.483 39.9905 208.009C38.2976 208.808 36.8131 209.989 35.6539 211.458C34.2437 213.236 33.1071 215.214 32.2816 217.328C31.4575 219.425 30.8164 221.59 30.3655 223.798C30.0181 225.602 29.7771 227.426 29.6438 229.259C29.5289 230.823 29.4842 232.088 29.465 232.963C29.4179 233.409 29.4179 233.858 29.465 234.304Z" fill="#E0E0E0"/>
<path d="M29.7204 231.481C29.7583 231.27 29.7712 231.056 29.7588 230.842C29.7588 230.37 29.7588 229.776 29.7588 229.054C29.7588 227.502 29.7588 225.254 29.8354 222.482C29.9759 216.938 30.4741 210.986 31.3746 202.561C32.2496 194.648 33.4184 185.445 34.6575 179.46C34.9193 178.1 35.1876 176.874 35.4431 175.801C35.6985 174.728 35.8837 173.795 36.0817 173.048C36.2797 172.301 36.3883 171.77 36.5033 171.311C36.5658 171.103 36.6022 170.888 36.6119 170.672C36.5156 170.858 36.4427 171.055 36.3947 171.259C36.2542 171.713 36.0817 172.275 35.871 172.971C35.6602 173.667 35.4047 174.638 35.1365 175.705C34.8682 176.771 34.5617 177.998 34.2743 179.358C32.74 186.436 31.5866 193.591 30.819 200.792C29.8993 209.223 29.4841 216.9 29.4458 222.456C29.4458 225.235 29.4458 227.489 29.5416 229.041C29.5863 229.763 29.6246 230.357 29.6502 230.823C29.6471 231.045 29.6707 231.265 29.7204 231.481Z" fill="#E0E0E0"/>
<path d="M29.7583 216.676C29.8069 216.053 29.8069 215.428 29.7583 214.805C29.688 213.604 29.5219 211.873 29.1834 209.747C28.7657 207.26 28.207 204.799 27.5101 202.376C26.7046 199.394 25.6733 196.477 24.4252 193.652C22.2883 188.445 19.2216 183.671 15.3751 179.562C14.7077 178.857 13.9951 178.195 13.2418 177.582C12.9161 177.301 12.6032 177.027 12.3349 176.809L11.5429 176.241C11.0459 175.862 10.5182 175.524 9.96539 175.232C9.87598 175.353 12.1944 176.72 15.1196 179.83C18.8404 183.977 21.8256 188.729 23.9462 193.882C25.1728 196.689 26.2077 199.576 27.0438 202.523C27.7462 204.924 28.3281 207.358 28.7875 209.817C29.1707 211.918 29.4261 213.649 29.5283 214.824C29.5556 215.447 29.6325 216.066 29.7583 216.676Z" fill="#E0E0E0"/>
<path d="M14.4556 240.537L15.9373 260.866H42.0532L43.5349 240.537H14.4556Z" fill="#EBEBEB"/>
<path d="M46.6457 232.528H11.9331V240.537H46.6457V232.528Z" fill="#EBEBEB"/>
<path d="M11.9331 260.087V262.304H13.5681H46.0772V260.087H11.9331Z" fill="#E0E0E0"/>
<path d="M15.1651 265.97L13.5684 262.061H44.832L42.967 265.97H15.1651Z" fill="#E0E0E0"/>
<path d="M43.0497 247.18C43.0171 247.248 42.9764 247.312 42.9284 247.371C42.8262 247.505 42.6921 247.678 42.5388 247.888L41.0187 249.805L40.9485 249.894L40.8846 249.805L37.1483 244.638H37.3591L33.6802 249.843L33.5653 250.009L33.4375 249.856L29.0753 244.663H29.3244L29.0881 244.97L25.1857 249.856L25.0516 250.022L24.9366 249.849L21.2514 244.644H21.4686L16.9339 249.805L16.8572 249.9L16.7934 249.792L15.3755 247.441C15.2222 247.186 15.1073 246.975 15.0114 246.803C14.9633 246.731 14.9246 246.654 14.8965 246.573C14.9562 246.634 15.0078 246.703 15.0498 246.777L15.4521 247.384L16.9403 249.728H16.7998L21.2706 244.503L21.3791 244.369L21.4813 244.51L25.1985 249.696H24.9558L28.8454 244.797C28.9284 244.695 29.0114 244.593 29.0817 244.497L29.2094 244.337L29.3372 244.491L33.6866 249.696H33.4439L37.1611 244.516L37.2696 244.363L37.3718 244.516C38.8472 246.618 40.099 248.399 41.0315 249.741H40.8974L42.4813 247.825C42.6538 247.627 42.7943 247.467 42.9028 247.333C42.948 247.278 42.9971 247.227 43.0497 247.18Z" fill="#F5F5F5"/>
<path d="M43.8996 240.403C43.8996 240.493 37.3531 240.569 29.2865 240.569C21.2199 240.569 14.6733 240.493 14.6733 240.403C14.6733 240.314 21.2135 240.244 29.2865 240.244C37.3594 240.244 43.8996 240.314 43.8996 240.403Z" fill="#F5F5F5"/>
<path d="M227.05 9.93491L221.698 9.96387L221.842 36.5967L227.194 36.5677L227.05 9.93491Z" fill="#E0E0E0"/>
<path d="M189.19 10.0056L175.331 10.0806L175.41 24.7829L189.269 24.7079L189.19 10.0056Z" fill="#EBEBEB"/>
<path d="M202.984 9.93038L189.125 10.0054L189.205 24.7077L203.064 24.6327L202.984 9.93038Z" fill="#F5F5F5"/>
<path d="M175.347 14.1494C184.561 14.226 193.78 14.1835 203.002 14.0217C203.041 14.0217 203.079 14.0062 203.106 13.9786C203.134 13.9511 203.149 13.9137 203.149 13.8748C203.149 13.8358 203.134 13.7984 203.106 13.7709C203.079 13.7433 203.041 13.7279 203.002 13.7279C193.793 13.6768 184.557 13.7279 175.347 13.9003C175.319 13.9067 175.294 13.9226 175.276 13.9452C175.258 13.9678 175.248 13.9959 175.248 14.0248C175.248 14.0538 175.258 14.0819 175.276 14.1045C175.294 14.1271 175.319 14.143 175.347 14.1494Z" fill="#E0E0E0"/>
<path d="M191.874 24.4634L166.691 24.5996L166.756 36.5812L191.939 36.4449L191.874 24.4634Z" fill="#EBEBEB"/>
<path d="M216.934 24.3276L191.751 24.4639L191.816 36.4454L216.999 36.3092L216.934 24.3276Z" fill="#F5F5F5"/>
<path d="M166.705 27.945C183.433 28.1302 200.217 27.945 216.951 27.6959C216.99 27.6959 217.027 27.6804 217.055 27.6529C217.082 27.6253 217.098 27.588 217.098 27.549C217.098 27.51 217.082 27.4727 217.055 27.4451C217.027 27.4176 216.99 27.4021 216.951 27.4021C200.224 27.3127 183.433 27.3191 166.705 27.6895C166.672 27.6895 166.639 27.703 166.615 27.7269C166.591 27.7509 166.578 27.7834 166.578 27.8173C166.578 27.8511 166.591 27.8836 166.615 27.9076C166.639 27.9315 166.672 27.945 166.705 27.945Z" fill="#E0E0E0"/>
<path d="M254.85 36.5923H157.285V40.8843H254.85V36.5923Z" fill="#E0E0E0"/>
<path d="M177.218 38.6558H173.258V53.3008H177.218V38.6558Z" fill="#E0E0E0"/>
<path d="M236.342 38.6558H232.382V53.3008H236.342V38.6558Z" fill="#E0E0E0"/>
<path d="M232.272 -0.000149384L226.919 0.0288086L227.118 36.6569L232.47 36.6279L232.272 -0.000149384Z" fill="#EBEBEB"/>
<path d="M240.631 6.82073L232.315 6.86572L232.476 36.5514L240.792 36.5064L240.631 6.82073Z" fill="#F5F5F5"/>
<path d="M240.576 12.5527C237.812 12.7479 235.037 12.7479 232.273 12.5527C235.037 12.3659 237.811 12.3659 240.576 12.5527Z" fill="#E0E0E0"/>
<path d="M240.576 11.3393C239.195 11.4791 237.806 11.526 236.418 11.4798C235.031 11.5258 233.642 11.4788 232.26 11.3393C235.024 11.1441 237.799 11.1441 240.563 11.3393H240.576Z" fill="#E0E0E0"/>
<path d="M240.576 32.0512C237.812 32.2465 235.037 32.2465 232.273 32.0512C235.037 31.8644 237.811 31.8644 240.576 32.0512Z" fill="#E0E0E0"/>
<path d="M240.576 30.8066C237.811 30.9934 235.037 30.9934 232.273 30.8066C235.037 30.6113 237.812 30.6113 240.576 30.8066Z" fill="#E0E0E0"/>
<path d="M236.552 28.0851C236.475 28.0851 236.412 25.0896 236.412 21.398C236.412 17.7064 236.475 14.7046 236.552 14.7046C236.629 14.7046 236.699 17.7 236.699 21.398C236.699 25.096 236.635 28.0851 236.552 28.0851Z" fill="#E0E0E0"/>
<path d="M249.723 14.1235H240.672V36.5286H249.723V14.1235Z" fill="#EBEBEB"/>
<path d="M229.514 7.80698C230.364 7.80698 231.054 7.11784 231.054 6.26775C231.054 5.41765 230.364 4.72852 229.514 4.72852C228.664 4.72852 227.975 5.41765 227.975 6.26775C227.975 7.11784 228.664 7.80698 229.514 7.80698Z" fill="#E0E0E0"/>
<path d="M229.993 10.5024H229.042V32.2944H229.993V10.5024Z" fill="#E0E0E0"/>
<path d="M282.129 267.036C282.129 267.132 220.738 267.202 145.035 267.202C69.3314 267.202 7.92822 267.132 7.92822 267.036C7.92822 266.94 69.3059 266.87 145.035 266.87C220.764 266.87 282.129 266.947 282.129 267.036Z" fill="#263238"/>
<path d="M80.6557 32.6387C83.6677 36.3246 85.2986 40.9463 85.267 45.7062C85.2351 48.4014 84.7369 51.3713 86.3081 53.562C87.4961 55.2226 89.6676 56.0593 90.632 57.8604C91.7944 60.0255 90.8044 62.7655 91.5198 65.1158C92.5289 68.4498 96.4377 69.8485 98.7561 72.4479C99.7444 73.5974 100.436 74.9717 100.77 76.4503C101.104 77.929 101.07 79.467 100.672 80.9297C100.25 82.3863 99.4859 83.721 98.4439 84.823C97.4019 85.925 96.112 86.7623 94.6813 87.2654C93.1536 87.8677 91.4496 87.8401 89.9422 87.1888C88.3774 86.4096 87.3875 84.8065 86.6211 83.2417C85.0818 80.1633 71.5609 63.5255 70.7944 60.166" fill="#263238"/>
<path d="M70.8197 28.7174C65.2886 27.8233 59.962 31.4957 57.6436 36.5924C55.3252 41.6891 55.2485 47.4501 55.0888 53.0705C54.9292 58.6909 54.5204 64.5157 51.6655 69.3314C49.8516 72.3907 47.0414 75.0796 46.6007 78.5988C46.2047 81.7539 47.8398 84.9345 47.2969 88.0705C46.8243 90.804 44.7421 93.18 44.8252 95.9455C44.9274 99.2794 48.3571 101.789 51.6846 101.879C55.0122 101.968 58.129 100.225 60.7412 98.1553C64.9972 94.7761 68.4029 90.4474 70.6855 85.5157" fill="#263238"/>
<path d="M61.7184 41.9003C61.5446 40.509 61.6522 39.0969 62.0346 37.748C62.417 36.399 63.0665 35.1407 63.9446 34.0475C64.8227 32.9544 65.9114 32.0488 67.1462 31.3845C68.3809 30.7202 69.7366 30.3108 71.1326 30.1804C76.7083 29.6439 81.6709 33.8018 82.5076 39.3455C83.2421 44.2059 83.868 49.111 83.8488 50.893C83.7786 56.2643 80.6554 58.3528 79.378 58.9851C78.9186 59.15 78.4435 59.2677 77.9602 59.3364V59.3747L79.1481 65.5444C79.691 69.5873 77.4364 73.2086 73.3999 73.7771C69.3634 74.3455 66.1892 71.2607 65.5696 67.2178L61.7184 41.9003Z" fill="#FFBE9D"/>
<path d="M81.4094 41.6953C81.3199 41.8231 80.611 41.4462 79.7041 41.5804C78.7971 41.7145 78.1904 42.2637 78.0754 42.1679C77.9605 42.0721 78.0754 41.9125 78.3564 41.657C78.7057 41.3168 79.1521 41.0936 79.6338 41.0183C80.1064 40.9454 80.5899 41.026 81.0134 41.2482C81.3327 41.4526 81.4541 41.6442 81.4094 41.6953Z" fill="#263238"/>
<path d="M73.3234 43.6627C73.234 43.7905 72.5251 43.4072 71.6117 43.5414C70.6984 43.6755 70.1044 44.2312 69.9895 44.1353C69.8745 44.0395 69.9895 43.8735 70.2705 43.6244C70.6197 43.2842 71.0661 43.061 71.5479 42.9857C72.0211 42.9183 72.5036 43.001 72.9274 43.222C73.2404 43.42 73.3681 43.6052 73.3234 43.6627Z" fill="#263238"/>
<path d="M76.6383 48.5362C77.0952 48.3164 77.578 48.1555 78.0754 48.0572C78.3053 47.9997 78.5161 47.923 78.5352 47.757C78.5145 47.5236 78.4257 47.3015 78.2798 47.1183L77.3281 45.4194C76.006 43.0435 75.0161 41.0763 75.1119 41.0189C75.2077 40.9614 76.3892 42.8583 77.6666 45.2342C77.9923 45.8218 78.3053 46.3838 78.5863 46.9139C78.7719 47.1737 78.8622 47.4895 78.8418 47.8081C78.8207 47.8952 78.7798 47.9763 78.7222 48.045C78.6646 48.1137 78.5918 48.1681 78.5097 48.2041C78.3851 48.2586 78.2543 48.2972 78.1201 48.319C77.6378 48.4557 77.1396 48.5287 76.6383 48.5362Z" fill="#263238"/>
<path d="M77.9095 59.3428C77.9095 59.3428 74.4414 60.1412 69.6641 58.1421C69.6641 58.1421 71.727 62.581 78.2352 61.0034L77.9095 59.3428Z" fill="#EB996E"/>
<path d="M72.8575 41.2807C72.8064 41.5425 71.8803 41.5553 70.8328 41.8427C69.7854 42.1301 68.9615 42.5389 68.7891 42.3409C68.7124 42.2451 68.8274 41.9896 69.1403 41.7022C69.5617 41.3418 70.0596 41.082 70.5963 40.9426C71.133 40.8031 71.6944 40.7877 72.238 40.8975C72.6595 40.9933 72.8575 41.1593 72.8575 41.2807Z" fill="#263238"/>
<path d="M80.6618 39.6836C80.534 39.9136 79.8762 39.7922 79.1225 39.888C78.3689 39.9838 77.7494 40.2329 77.5705 40.0349C77.4939 39.9391 77.5705 39.722 77.8132 39.4857C78.1482 39.1887 78.5685 39.0054 79.014 38.9619C79.4539 38.9089 79.8995 38.9914 80.2913 39.1982C80.5979 39.3707 80.7193 39.5687 80.6618 39.6836Z" fill="#263238"/>
<path d="M71.3497 44.8378C71.3637 44.9367 71.3973 45.0317 71.4484 45.1175C71.4994 45.2033 71.5671 45.278 71.6473 45.3375C71.7275 45.3969 71.8187 45.4398 71.9157 45.4636C72.0126 45.4875 72.1133 45.4919 72.2119 45.4765C72.3078 45.4655 72.4006 45.4355 72.4848 45.3882C72.569 45.341 72.643 45.2775 72.7024 45.2014C72.7618 45.1254 72.8056 45.0382 72.831 44.9451C72.8564 44.852 72.8631 44.7547 72.8506 44.659C72.8207 44.4601 72.7131 44.2812 72.5515 44.1615C72.3899 44.0418 72.1874 43.991 71.9884 44.0203C71.8921 44.0305 71.7989 44.06 71.7143 44.1069C71.6297 44.1539 71.5553 44.2174 71.4958 44.2937C71.4362 44.37 71.3925 44.4574 71.3674 44.5509C71.3424 44.6444 71.3363 44.742 71.3497 44.8378Z" fill="#263238"/>
<path d="M79.4034 43.0942C79.4334 43.2931 79.541 43.4719 79.7026 43.5917C79.8642 43.7114 80.0667 43.7621 80.2656 43.7329C80.3616 43.7218 80.4543 43.6918 80.5385 43.6446C80.6227 43.5974 80.6967 43.5339 80.7561 43.4578C80.8155 43.3817 80.8593 43.2946 80.8847 43.2015C80.9101 43.1083 80.9168 43.0111 80.9043 42.9153C80.8744 42.7165 80.7668 42.5376 80.6052 42.4179C80.4436 42.2981 80.2411 42.2474 80.0421 42.2767C79.9459 42.2869 79.8526 42.3163 79.768 42.3633C79.6834 42.4103 79.6091 42.4738 79.5495 42.55C79.4899 42.6263 79.4462 42.7138 79.4212 42.8073C79.3961 42.9007 79.39 42.9983 79.4034 43.0942Z" fill="#263238"/>
<path d="M78.0686 50.2983C77.8178 50.2203 77.5477 50.2325 77.305 50.3328C77.0624 50.4332 76.8625 50.6153 76.7401 50.8476C76.6232 51.0609 76.5757 51.3054 76.6043 51.547C76.6329 51.7885 76.7362 52.0151 76.8998 52.1952C77.0738 52.3662 77.303 52.4697 77.5464 52.4873C77.7898 52.5048 78.0314 52.4353 78.2282 52.291C78.4746 52.0667 78.6236 51.755 78.6434 51.4224C78.6867 51.1175 78.6138 50.8074 78.439 50.5538C78.3493 50.4298 78.2212 50.3388 78.0746 50.295C77.9279 50.2511 77.7709 50.2568 77.6279 50.3111" fill="#EB996E"/>
<path d="M81.7986 34.9703C81.2973 32.9467 80.0463 31.189 78.2986 30.0524C76.8681 29.0191 75.1688 28.4224 73.4063 28.3343C71.6328 28.258 69.9013 28.8872 68.5906 30.0843C67.6605 31.0062 67.1286 32.2558 67.1089 33.5652L67.211 32.671C66.9427 33.3986 66.9427 34.198 67.211 34.9256C67.3579 35.3152 67.5368 35.7112 67.6901 36.1008C68.1473 37.2266 68.9955 38.1496 70.0787 38.7002C70.5693 38.9634 71.1188 39.0974 71.6755 39.0898C71.9541 39.0842 72.2282 39.0179 72.4786 38.8954C72.729 38.773 72.9497 38.5974 73.1253 38.3809C73.5218 37.6885 73.6449 36.8729 73.4702 36.0944C73.8893 36.8637 74.4873 37.5209 75.2138 38.0104C75.5847 38.2475 76.0259 38.3496 76.4633 38.2996C76.9006 38.2495 77.3074 38.0505 77.6152 37.7358C78.139 37.0971 77.9346 36.088 77.6152 35.296C78.1093 36.043 78.8015 36.6379 79.6143 37.0141C79.8282 37.1368 80.0652 37.2138 80.3104 37.2401C80.5555 37.2665 80.8035 37.2417 81.0386 37.1674C81.2265 37.0742 81.3909 36.9395 81.5192 36.7736C81.6475 36.6076 81.7365 36.4147 81.7795 36.2093C81.8743 35.8024 81.8808 35.3799 81.7986 34.9703Z" fill="#263238"/>
<path d="M77.1803 36.6692C77.1229 36.6692 77.1356 35.9092 76.8865 34.7531C76.5992 33.217 75.8269 31.8134 74.6831 30.7486C74.0544 30.1769 73.2959 29.767 72.4732 29.5542C71.7994 29.3889 71.0978 29.3714 70.4167 29.5032C69.7888 29.6499 69.1891 29.898 68.6411 30.2376C68.6411 30.2376 68.7497 30.078 69.0307 29.8736C69.434 29.5915 69.8869 29.3878 70.3656 29.2732C71.0819 29.1055 71.8272 29.1055 72.5435 29.2732C73.4261 29.4936 74.2388 29.9329 74.9066 30.5506C76.1043 31.6594 76.8864 33.1447 77.1229 34.7595C77.1989 35.2369 77.2373 35.7196 77.2378 36.203C77.2457 36.3605 77.2263 36.5183 77.1803 36.6692Z" fill="#455A64"/>
<path d="M136.004 111.133L111.446 101.393C111.446 101.393 98.8705 84.896 99.1323 84.5767L90.2993 94.2464L103.137 111.612L132.893 118.587L138.003 117.169C136.879 111.746 136.004 111.133 136.004 111.133Z" fill="#FFBE9D"/>
<path d="M82.4817 64.0689L79.1349 62.7915L64.6879 64.6245V67.1793L64.2727 67.2304C61.1585 67.8925 58.1715 69.0528 55.4269 70.6665C52.8561 72.2359 50.8133 74.5383 49.5614 77.2778C48.3094 80.0174 47.9055 83.0687 48.4014 86.0397C48.989 89.6929 50.1259 94.1318 52.3229 96.6993C56.5191 101.611 60.3512 95.5433 60.3512 95.5433C60.3512 95.5433 62.9826 101.547 62.8293 104.389C62.7016 106.771 61.6541 111.728 61.3156 113.273C61.3017 113.335 61.3005 113.399 61.3122 113.461C61.3238 113.523 61.348 113.583 61.3832 113.635C61.4185 113.688 61.4641 113.733 61.5172 113.767C61.5704 113.801 61.63 113.825 61.6924 113.835L92.1705 119.475L92.3174 112.021L91.3466 81.3645L89.9734 69.4594C89.9734 69.4594 90.0181 63.7751 82.4817 64.0689Z" fill="#EC4C4C"/>
<path d="M89.5078 67.4795L101.132 84.2705L91.7751 95.6647L89.5078 67.4795Z" fill="#EC4C4C"/>
<path d="M92.0172 102.812C91.9755 102.451 91.9605 102.088 91.9725 101.726C91.9725 100.972 91.9725 99.9823 91.9342 98.7752C91.8776 95.5354 91.6453 92.301 91.238 89.0864C90.759 85.3181 90.0245 81.9522 89.4689 79.5061L88.7919 76.632C88.6937 76.2844 88.6211 75.93 88.5747 75.5718C88.72 75.9036 88.8354 76.2477 88.9196 76.6001C89.1176 77.2387 89.3858 78.2415 89.6924 79.455C90.5171 82.6062 91.1442 85.8059 91.5701 89.0353C91.9807 92.2634 92.1813 95.5147 92.1705 98.7688C92.1705 100.046 92.1386 101.03 92.1003 101.726C92.1035 102.09 92.0758 102.453 92.0172 102.812Z" fill="#263238"/>
<path d="M63.4046 77.2829C63.4046 77.334 62.5232 77.3276 61.1117 77.3979C59.27 77.4978 57.4383 77.7347 55.6318 78.1068C53.8257 78.4858 52.0497 78.996 50.3179 79.6333C48.9894 80.1251 48.1911 80.4891 48.1655 80.438C48.3292 80.3097 48.5098 80.2044 48.702 80.1251C49.0533 79.9335 49.577 79.6908 50.2349 79.4161C53.6812 77.993 57.3644 77.2303 61.0925 77.168C61.8079 77.168 62.3699 77.168 62.785 77.2063C62.9943 77.1996 63.2033 77.2254 63.4046 77.2829Z" fill="#FAFAFA"/>
<path d="M90.3249 84.9661C89.8578 85.1359 89.3703 85.2432 88.8751 85.2855C86.5133 85.6302 84.1206 85.7117 81.741 85.5282C81.244 85.5196 80.7502 85.4466 80.272 85.311C80.7649 85.2672 81.2608 85.2672 81.7537 85.311C82.6607 85.311 83.9189 85.311 85.3048 85.311C86.6908 85.311 87.9426 85.1705 88.8495 85.0875C89.3366 85.0024 89.8304 84.9618 90.3249 84.9661Z" fill="#FAFAFA"/>
<path d="M95.6586 77.3726C94.9546 78.186 94.1111 78.8673 93.1677 79.3844C92.2772 79.9864 91.2834 80.4194 90.2362 80.6618C90.1978 80.5724 91.5135 80.0231 92.9953 79.0778C94.477 78.1326 95.5947 77.2959 95.6586 77.3726Z" fill="#FAFAFA"/>
<path d="M90.9637 69.5866C88.9486 71.3993 86.3811 72.4794 83.6763 72.6523C83.6763 72.5501 85.4327 72.2819 87.4509 71.4197C89.4691 70.5575 90.8998 69.5036 90.9637 69.5866Z" fill="#FAFAFA"/>
<path d="M91.5964 97.9696C91.4085 98.0959 91.2071 98.2009 90.996 98.2826C90.5936 98.4742 90.0124 98.7105 89.2715 98.9851C87.3467 99.6768 85.3597 100.182 83.3382 100.492C81.3167 100.804 79.2695 100.918 77.2259 100.831C76.4403 100.799 75.8081 100.742 75.3737 100.684C75.1464 100.669 74.9214 100.628 74.7031 100.563C74.7031 100.505 75.6739 100.563 77.2579 100.601C81.3186 100.639 85.3586 100.018 89.2204 98.7616C90.6766 98.2826 91.5772 97.9185 91.5964 97.9696Z" fill="#FAFAFA"/>
<path d="M91.8319 106.625C91.8319 106.625 91.7425 106.688 91.5573 106.784L90.7398 107.142C90.0372 107.474 88.9961 107.908 87.6932 108.419C86.3903 108.93 84.8128 109.422 83.0372 109.907C79.1772 110.947 75.2151 111.561 71.2215 111.74C69.3821 111.811 67.7279 111.804 66.3356 111.74C64.9433 111.677 63.8256 111.574 63.0527 111.466L62.165 111.344C62.0604 111.337 61.9573 111.315 61.8584 111.281C61.9621 111.264 62.0677 111.264 62.1714 111.281L63.0655 111.338C63.8383 111.402 64.9816 111.466 66.342 111.504C67.7024 111.542 69.3821 111.504 71.2088 111.44C73.0354 111.376 75.0409 111.146 77.1294 110.802C79.2179 110.457 81.185 110.041 82.9606 109.594C84.7361 109.147 86.3073 108.643 87.6102 108.177C88.9131 107.71 89.9733 107.321 90.6887 107.027L91.519 106.701C91.6203 106.665 91.7252 106.639 91.8319 106.625Z" fill="#FAFAFA"/>
<path d="M35.8138 242.403L32.3585 258.006L26.0547 269.56C25.9475 269.757 25.8819 269.974 25.8619 270.198C25.842 270.421 25.8682 270.647 25.9388 270.86C26.0095 271.073 26.1231 271.269 26.2726 271.437C26.4222 271.604 26.6045 271.739 26.8083 271.833C27.0449 271.942 27.3041 271.992 27.5641 271.98C27.8241 271.968 28.0775 271.894 28.3028 271.763C31.228 270.077 41.9643 263.799 42.1495 262.643C42.3731 261.308 46.8886 246.427 46.8886 246.427L35.8138 242.403Z" fill="#EC4C4C"/>
<g opacity="0.6">
<path d="M26.8081 271.833L42.4112 261.614L42.2451 262.252C42.1086 262.822 41.7735 263.325 41.2999 263.67C40.0225 264.584 36.465 267.036 28.3537 271.775C28.1208 271.912 27.8578 271.988 27.5881 271.998C27.3184 272.008 27.0505 271.951 26.8081 271.833Z" fill="white"/>
</g>
<g opacity="0.6">
<path d="M40.4499 255.808C40.2245 255.902 40.0418 256.076 39.9369 256.297C39.832 256.517 39.8122 256.769 39.8814 257.003C39.9667 257.231 40.136 257.417 40.3546 257.524C40.5731 257.631 40.8244 257.65 41.0566 257.577C41.2979 257.478 41.4932 257.291 41.6042 257.055C41.7153 256.819 41.7341 256.55 41.657 256.3C41.5439 256.074 41.3485 255.9 41.111 255.813C40.8735 255.726 40.6118 255.734 40.3796 255.834" fill="white"/>
</g>
<path d="M32.0195 265.919C31.7618 265.344 31.4002 264.822 30.9528 264.379C30.4376 264.02 29.859 263.763 29.2476 263.619C29.2476 263.575 29.4711 263.504 29.8479 263.543C30.3383 263.606 30.7997 263.81 31.1764 264.13C31.5559 264.438 31.8359 264.852 31.9811 265.318C32.0897 265.682 32.0578 265.919 32.0195 265.919Z" fill="#263238"/>
<path d="M30.4037 267.725C30.3143 267.777 29.9374 267.151 29.1902 266.723C28.7135 266.501 28.2228 266.311 27.7212 266.154C27.9969 266.064 28.2902 266.041 28.5767 266.086C28.8633 266.132 29.1349 266.245 29.369 266.416C30.2185 266.908 30.4931 267.706 30.4037 267.725Z" fill="#263238"/>
<path d="M34.7273 263.76C34.1841 263.157 33.5948 262.598 32.9645 262.087C32.2701 261.663 31.5441 261.294 30.793 260.982C31.6568 260.964 32.4988 261.254 33.1689 261.799C33.9077 262.244 34.4611 262.94 34.7273 263.76Z" fill="#263238"/>
<path d="M36.1773 259.104C36.1134 259.187 35.3406 258.619 34.2612 258.306C33.1818 257.993 32.2046 258.044 32.1982 257.935C32.9091 257.751 33.6565 257.763 34.3614 257.968C35.0663 258.174 35.7026 258.567 36.2028 259.104H36.1773Z" fill="#263238"/>
<path d="M37.3079 254.551C36.6849 254.165 36.0123 253.867 35.3088 253.663C34.5841 253.564 33.8493 253.564 33.1245 253.663C33.1245 253.625 33.3225 253.471 33.7313 253.35C34.2686 253.204 34.8326 253.186 35.3782 253.297C35.9238 253.408 36.4359 253.645 36.8736 253.989C37.1993 254.295 37.3334 254.525 37.3079 254.551Z" fill="#263238"/>
<path d="M35.5448 252.8C35.5453 252.598 35.5888 252.397 35.6725 252.213C35.8535 251.685 36.1404 251.201 36.5156 250.788C36.7611 250.462 37.1064 250.224 37.4992 250.111C37.6329 250.089 37.7701 250.108 37.8931 250.165C38.0161 250.222 38.1192 250.315 38.189 250.431C38.3064 250.669 38.3314 250.942 38.2592 251.197C38.0955 251.709 37.7587 252.149 37.3066 252.44C36.8545 252.731 36.3153 252.856 35.7811 252.794C35.2544 252.719 34.7616 252.489 34.365 252.135C33.9683 251.78 33.6855 251.316 33.5521 250.801C33.5214 250.67 33.5187 250.534 33.544 250.402C33.5693 250.27 33.6221 250.145 33.699 250.035C33.7873 249.932 33.906 249.859 34.0381 249.828C34.1701 249.797 34.3086 249.809 34.4335 249.862C34.7945 250.042 35.1026 250.313 35.3277 250.648C35.6661 251.091 35.9235 251.59 36.0877 252.123C36.1655 252.314 36.2025 252.518 36.1963 252.724C35.9388 252.035 35.5792 251.389 35.1297 250.808C34.9203 250.535 34.6488 250.316 34.3377 250.169C34.2693 250.139 34.1931 250.132 34.1206 250.15C34.048 250.167 33.983 250.207 33.9353 250.265C33.8907 250.34 33.862 250.423 33.851 250.51C33.84 250.597 33.847 250.685 33.8714 250.769C34.0047 251.203 34.2576 251.59 34.6011 251.886C34.9446 252.182 35.3647 252.375 35.8131 252.443C36.2648 252.495 36.721 252.393 37.1072 252.153C37.4935 251.913 37.787 251.549 37.9399 251.12C38.0018 250.947 38.0018 250.757 37.9399 250.584C37.9037 250.518 37.8478 250.466 37.7802 250.434C37.7126 250.402 37.6367 250.392 37.563 250.405C37.2302 250.497 36.9336 250.688 36.7136 250.954C36.2237 251.5 35.8286 252.124 35.5448 252.8Z" fill="#263238"/>
<g opacity="0.3">
<path d="M35.3918 244.095L34.6445 247.672L45.9429 249.55L46.8881 246.427L35.7942 242.403L35.3918 244.095Z" fill="black"/>
</g>
<path d="M86.2694 248.176L85.3369 260.643C85.3369 260.643 97.7019 265.753 97.753 268.103L73.4829 267.164L74.1216 247.671L86.2694 248.176Z" fill="#EC4C4C"/>
<g opacity="0.6">
<path d="M77.8961 259.302C77.6605 259.365 77.4563 259.513 77.3221 259.716C77.1879 259.92 77.1331 260.166 77.168 260.407C77.2217 260.645 77.3639 260.853 77.5656 260.989C77.7672 261.126 78.0133 261.18 78.2537 261.142C78.5042 261.075 78.7212 260.918 78.8628 260.701C79.0043 260.484 79.0604 260.222 79.0202 259.966C78.9395 259.724 78.7681 259.522 78.5419 259.403C78.3157 259.284 78.0523 259.257 77.8067 259.328" fill="white"/>
</g>
<g opacity="0.6">
<path d="M73.4951 267.164L73.6356 265.197L96.8518 266.813C96.8518 266.813 97.9184 267.324 97.7652 268.091L73.4951 267.164Z" fill="white"/>
</g>
<path d="M85.7455 260.535C85.7455 260.656 85.1451 260.688 84.5512 261.046C83.9572 261.403 83.6251 261.889 83.5165 261.838C83.4079 261.787 83.6123 261.11 84.3404 260.688C85.0685 260.267 85.7774 260.426 85.7455 260.535Z" fill="#263238"/>
<path d="M88.2496 261.703C88.2496 261.825 87.7515 262.004 87.3299 262.489C86.9084 262.974 86.7743 263.498 86.6529 263.492C86.5316 263.485 86.4869 262.808 87.0233 262.214C87.5598 261.62 88.2496 261.576 88.2496 261.703Z" fill="#263238"/>
<path d="M89.5775 264.788C89.469 264.788 89.3285 264.207 89.6542 263.575C89.9799 262.942 90.5484 262.7 90.5931 262.802C90.6378 262.904 90.2865 263.236 90.0246 263.76C89.7628 264.284 89.6925 264.782 89.5775 264.788Z" fill="#263238"/>
<path d="M85.6304 257.674C85.5793 257.776 85.0428 257.591 84.353 257.61C83.6632 257.629 83.1523 257.821 83.0756 257.718C82.999 257.616 83.5355 257.214 84.353 257.201C85.1705 257.188 85.707 257.584 85.6304 257.674Z" fill="#263238"/>
<g opacity="0.3">
<path d="M86.0971 250.648L85.931 252.87L74.0195 252.296L74.1026 249.728L86.0971 250.648Z" fill="black"/>
</g>
<path d="M85.7905 255.15C85.3892 255.247 84.9687 255.23 84.577 255.099C84.1342 255.007 83.7049 254.859 83.2996 254.659C83.0631 254.542 82.8348 254.41 82.6162 254.263C82.4828 254.181 82.3623 254.08 82.2585 253.962C82.1881 253.871 82.1499 253.759 82.1499 253.643C82.1499 253.528 82.1881 253.415 82.2585 253.324C82.3206 253.243 82.4011 253.178 82.4933 253.135C82.5856 253.092 82.6868 253.071 82.7886 253.075C82.9424 253.081 83.0948 253.107 83.2421 253.151C83.4977 253.226 83.7457 253.324 83.983 253.445C84.3863 253.642 84.7551 253.903 85.0751 254.218C85.618 254.761 85.7905 255.214 85.7521 255.233C85.7138 255.253 85.4392 254.889 84.8835 254.435C84.5573 254.18 84.2013 253.966 83.8233 253.796C83.598 253.703 83.3677 253.622 83.1335 253.554C82.878 253.477 82.6609 253.471 82.5906 253.554C82.5204 253.637 82.5906 253.618 82.5906 253.694C82.6672 253.779 82.7554 253.852 82.8525 253.911C83.0574 254.054 83.2707 254.184 83.4912 254.301C83.8595 254.504 84.2467 254.671 84.6472 254.799C85.0362 254.889 85.4182 255.006 85.7905 255.15Z" fill="#263238"/>
<path d="M85.6308 255.316C85.4186 254.958 85.3226 254.543 85.3562 254.128C85.3587 253.679 85.432 253.233 85.5733 252.806C85.665 252.556 85.7782 252.315 85.9118 252.085C85.9836 251.927 86.0947 251.79 86.2344 251.687C86.3742 251.584 86.538 251.519 86.7102 251.497C86.8192 251.504 86.924 251.542 87.0122 251.607C87.1005 251.671 87.1685 251.759 87.2083 251.861C87.2638 252.004 87.2982 252.155 87.3105 252.308C87.3525 252.579 87.3525 252.855 87.3105 253.126C87.2251 253.577 87.0299 254 86.7421 254.358C86.2439 254.997 85.7458 255.093 85.733 255.055C85.7202 255.016 86.1162 254.78 86.5058 254.186C86.7293 253.847 86.8755 253.463 86.9337 253.062C86.9661 252.829 86.9661 252.592 86.9337 252.359C86.9018 252.104 86.8124 251.887 86.7165 251.912C86.6207 251.938 86.3844 252.091 86.2759 252.295C86.1512 252.5 86.0423 252.713 85.9501 252.934C85.8023 253.32 85.7077 253.724 85.6691 254.135C85.5861 254.85 85.6947 255.316 85.6308 255.316Z" fill="#263238"/>
<path d="M61.1822 113.72C61.1822 113.72 57.3501 113.892 54.7953 126.998C52.2406 140.104 32.7671 246.298 32.7671 246.298L46.8884 246.426L73.4961 145.463L71.7269 249.568L86.0718 250.667C86.0718 250.667 96.8336 135.518 96.9294 128.818C97.0572 120.464 92.2606 112.015 92.2606 112.015L61.1822 113.72Z" fill="#263238"/>
<path d="M80.5915 112.602C80.6809 112.602 79.2119 120.107 77.315 129.323C75.4181 138.539 73.8086 145.999 73.7192 145.98C73.6298 145.961 75.0924 138.475 76.9893 129.259C78.8862 120.043 80.5212 112.583 80.5915 112.602Z" fill="#455A64"/>
<path d="M82.7885 114.474C82.7885 114.436 83.1717 114.321 83.6124 114.71C83.7376 114.824 83.8366 114.963 83.9028 115.119C83.969 115.274 84.0006 115.442 83.9956 115.611C83.9796 115.824 83.9033 116.029 83.7755 116.201C83.6478 116.373 83.4738 116.505 83.2739 116.582C83.0789 116.67 82.8629 116.702 82.6506 116.674C82.4384 116.646 82.2383 116.558 82.0732 116.422C81.9496 116.306 81.8522 116.165 81.7872 116.009C81.7222 115.853 81.6913 115.684 81.6963 115.515C81.6963 114.927 82.0923 114.723 82.0987 114.761C81.991 114.996 81.9344 115.251 81.9327 115.509C81.9412 115.638 81.9756 115.765 82.0337 115.881C82.0918 115.998 82.1725 116.101 82.2712 116.186C82.3972 116.273 82.543 116.326 82.6952 116.342C82.8475 116.358 83.0012 116.335 83.1424 116.276C83.2835 116.217 83.4076 116.123 83.5031 116.004C83.5986 115.884 83.6626 115.742 83.689 115.592C83.6984 115.462 83.6818 115.332 83.6401 115.209C83.5984 115.087 83.5325 114.973 83.4463 114.876C83.1334 114.512 82.7821 114.525 82.7885 114.474Z" fill="#455A64"/>
<path d="M82.1822 119.66C82.1822 119.622 82.5781 119.66 82.8208 120.19C82.8826 120.342 82.9105 120.504 82.9028 120.668C82.8951 120.831 82.8519 120.991 82.7761 121.135C82.6663 121.308 82.5116 121.447 82.3288 121.537C82.1459 121.628 81.9417 121.668 81.7381 121.651C81.5346 121.635 81.3393 121.563 81.1734 121.444C81.0074 121.325 80.877 121.163 80.7962 120.976C80.7452 120.822 80.7284 120.659 80.7472 120.497C80.766 120.336 80.8197 120.181 80.9048 120.043C81.205 119.564 81.6137 119.577 81.601 119.615C81.5882 119.654 81.2944 119.743 81.1092 120.152C81.0155 120.381 81.0155 120.638 81.1092 120.867C81.1759 120.994 81.2735 121.102 81.393 121.181C81.5126 121.26 81.6501 121.307 81.7929 121.318C81.9356 121.33 82.079 121.305 82.2095 121.246C82.3401 121.187 82.4538 121.097 82.5398 120.982C82.6601 120.764 82.6899 120.507 82.6228 120.267C82.4376 119.833 82.1502 119.705 82.1822 119.66Z" fill="#455A64"/>
<path d="M68.6485 114.602C68.6223 114.821 68.5664 115.036 68.4825 115.241C68.283 115.825 68.0329 116.392 67.7352 116.933C66.7607 118.74 65.3533 120.277 63.6389 121.406C61.9246 122.535 59.9569 123.221 57.9122 123.403C57.2981 123.456 56.6805 123.456 56.0664 123.403C55.8501 123.396 55.6354 123.362 55.4277 123.301C55.4277 123.237 56.3922 123.345 57.9186 123.154C59.9081 122.912 61.8144 122.213 63.4878 121.11C65.1612 120.008 66.5561 118.532 67.5628 116.799C68.31 115.509 68.591 114.583 68.6485 114.602Z" fill="#455A64"/>
<path d="M96.1244 123.92C96.1244 123.92 95.9583 123.843 95.6964 123.665C95.3306 123.401 94.9886 123.106 94.6746 122.783C93.6242 121.72 92.8046 120.451 92.2672 119.057C91.7298 117.662 91.4861 116.171 91.5514 114.678C91.566 114.229 91.6237 113.782 91.7238 113.343C91.7941 113.03 91.8388 112.864 91.8643 112.871C91.8899 112.877 91.7877 113.567 91.7877 114.685C91.7887 117.619 92.8789 120.448 94.847 122.624C95.5943 123.447 96.1563 123.869 96.1244 123.92Z" fill="#455A64"/>
<path d="M145.667 124.29C145.878 123.779 145.821 123.984 142.436 121.736C142.436 121.736 147.29 124.929 146.785 123.409C146.349 122.833 145.815 122.338 145.208 121.946C146.485 122.7 147.226 122.783 147.449 122.476C147.833 121.946 145.054 119.922 143.732 119.008C144.941 119.873 146.209 120.652 147.526 121.34C148.312 121.582 147.935 120.663 147.405 119.992C146.875 119.321 142.761 115.362 141.657 114.18C141.551 114.09 141.467 113.978 141.409 113.853C141.351 113.727 141.321 113.59 141.321 113.452C141.321 113.313 141.351 113.177 141.409 113.051C141.467 112.925 141.551 112.814 141.657 112.724C143.636 111.446 144.505 109.409 144.479 108.738C144.458 108.587 144.388 108.447 144.282 108.338C144.175 108.229 144.037 108.156 143.886 108.131C143.736 108.105 143.581 108.128 143.444 108.196C143.308 108.264 143.196 108.373 143.125 108.508C142.626 109.13 142.043 109.68 141.395 110.143C140.892 110.536 140.326 110.84 139.721 111.044C139.019 111.274 135.563 111.082 134.823 110.705L132.466 118.695C132.466 118.695 141.018 122.694 142.64 123.473C144.633 124.418 145.521 124.68 145.667 124.29Z" fill="#FFBE9D"/>
<path d="M140.896 120.554C140.826 120.65 141.937 121.461 143.374 122.374C144.811 123.287 146.018 123.945 146.076 123.85C146.133 123.754 145.022 122.936 143.591 122.029C142.161 121.122 140.96 120.433 140.896 120.554Z" fill="#EB996E"/>
<path d="M141.701 118.989C141.637 119.085 142.774 120.017 144.256 121.077C145.737 122.138 146.964 122.923 147.027 122.834C147.091 122.744 145.961 121.805 144.473 120.745C142.985 119.685 141.771 118.899 141.701 118.989Z" fill="#EB996E"/>
<path d="M142.551 117.405C142.487 117.495 143.547 118.401 144.92 119.423C146.293 120.445 147.475 121.199 147.526 121.11C147.577 121.02 146.536 120.113 145.163 119.091C143.79 118.069 142.621 117.316 142.551 117.405Z" fill="#EB996E"/>
<path d="M55.5673 88.4662L61.8392 88.8111C62.2834 90.562 62.8775 92.2715 63.6147 93.9206C68.6667 85.1578 72.5563 73.4124 73.5527 68.6925C73.4122 68.2284 73.2397 67.7047 73.0353 67.1213C72.8823 66.2395 72.9084 65.3359 73.112 64.4644C73.2844 63.4169 73.5782 61.9991 73.6612 61.3476C73.9359 59.3549 74.2552 59.0356 74.9386 59.2655C75.8839 59.5721 74.549 64.8668 75.3218 64.9817C75.7434 65.0392 76.2479 63.2253 76.4012 61.7372C76.5545 60.2491 77.2187 55.6761 77.7105 55.3504C78.4322 54.9033 79.0581 55.6122 78.8793 57.094C78.7005 58.5757 78.4642 63.0657 79.2497 63.1232C80.0353 63.1806 80.674 55.5931 80.674 55.5931C80.674 55.5931 80.5527 53.9452 81.4596 53.9836C83.101 54.0538 81.8236 62.0566 81.6831 62.8166C81.5809 63.3403 82.4368 63.4553 82.5134 62.8677C82.5901 62.2801 82.9861 55.2737 84.653 55.3312C85.9304 55.3759 83.6631 61.9224 84.3848 63.4425C85.1065 64.9626 85.6047 58.2883 86.8309 58.3777C87.2844 58.416 87.6229 58.5055 86.7862 62.2801C85.9697 65.2816 84.9911 68.2367 83.8547 71.1323C81.9386 81.6067 73.3866 115.112 60.0253 108.981C52.5527 105.551 49.0591 88.5428 49.0591 88.5428L55.5673 88.4662Z" fill="#FFBE9D"/>
<path d="M83.8673 71.1894C83.8783 71.1103 83.8998 71.033 83.9312 70.9595C83.9887 70.7935 84.0589 70.5763 84.1547 70.3208C84.3655 69.7141 84.6529 68.871 85.0297 67.7661C85.4066 66.6612 85.86 65.3199 86.3071 63.736C86.537 62.9504 86.7287 62.0946 86.9011 61.1812C86.9905 60.7214 87.0735 60.2488 87.131 59.7634C87.1469 59.5231 87.1469 59.282 87.131 59.0416C87.131 58.7926 87.0735 58.5882 86.8755 58.5818C86.6776 58.5754 86.537 58.6968 86.3965 58.9075C86.2693 59.1331 86.1645 59.3705 86.0836 59.6165C85.9048 60.121 85.7642 60.6575 85.6237 61.2004C85.4832 61.7433 85.3555 62.3117 85.1894 62.8865C85.117 63.2014 84.9871 63.5002 84.8062 63.7679C84.7607 63.8204 84.7007 63.8581 84.6338 63.8765C84.5916 63.8858 84.5479 63.8854 84.5059 63.8754C84.4638 63.8655 84.4246 63.8462 84.3911 63.819C84.3177 63.7517 84.2571 63.6716 84.2122 63.5827C84.1448 63.4258 84.0996 63.2603 84.0781 63.0909C84.049 61.8027 84.1777 60.5157 84.4613 59.2588C84.5699 58.6201 84.6849 57.9814 84.7679 57.3427C84.8062 57.017 84.8445 56.7041 84.8509 56.3592C84.8573 56.0143 84.8062 55.6502 84.6721 55.5927C84.538 55.5353 84.2122 55.7141 84.0334 55.9823C83.8569 56.2657 83.7173 56.5705 83.6183 56.8893C83.4005 57.5564 83.236 58.2399 83.1265 58.9331C83.0051 59.6356 82.9093 60.351 82.8263 61.0791C82.7943 61.4431 82.756 61.8072 82.7241 62.1776L82.673 62.7332C82.6798 62.8519 82.6605 62.9706 82.6163 63.081C82.5722 63.1914 82.5043 63.2907 82.4175 63.3719C82.3081 63.4519 82.1762 63.4949 82.0407 63.4949C81.9052 63.4949 81.7733 63.4519 81.6639 63.3719C81.6019 63.331 81.5494 63.2774 81.5098 63.2146C81.4701 63.1519 81.4443 63.0814 81.4339 63.0079C81.4242 62.9401 81.4242 62.8713 81.4339 62.8035V62.6694L81.6064 61.5517C81.715 60.798 81.8044 60.0444 81.8746 59.278C81.9449 58.5115 82.0024 57.7387 82.0152 56.9659C82.0526 56.2008 81.9751 55.4344 81.7852 54.6922C81.7412 54.5039 81.627 54.3394 81.4659 54.2323C81.3889 54.2076 81.306 54.2079 81.2291 54.2331C81.1522 54.2583 81.0853 54.3073 81.038 54.3729C80.8312 54.7509 80.7464 55.1837 80.7953 55.6119C80.6547 57.1128 80.4951 58.5882 80.2779 60.038C80.1693 60.7597 80.048 61.4814 79.8692 62.1904C79.8181 62.3628 79.767 62.5416 79.7031 62.7205C79.6424 62.9372 79.515 63.1294 79.3391 63.2697C79.2612 63.308 79.1728 63.3187 79.0881 63.3001C79.0034 63.2815 78.9275 63.2348 78.8728 63.1676C78.7948 63.0856 78.7359 62.9875 78.7004 62.8801C78.6315 62.703 78.5822 62.5188 78.5535 62.3309C78.4038 60.941 78.391 59.5398 78.5152 58.1475C78.6095 57.4984 78.6459 56.8422 78.6237 56.1867C78.6031 55.9069 78.4749 55.646 78.2661 55.4586C78.217 55.4281 78.1623 55.4079 78.1052 55.3991C78.0482 55.3903 77.9899 55.3932 77.934 55.4075C77.8742 55.4277 77.8165 55.4533 77.7615 55.4842C77.704 55.5353 77.7104 55.4842 77.6721 55.5927C77.4411 56.1671 77.272 56.7645 77.1675 57.3747C77.0398 58.0134 76.9312 58.5946 76.8354 59.1949C76.7396 59.7953 76.6502 60.3829 76.5736 60.9705C76.4969 61.5581 76.4586 62.1329 76.3436 62.7077C76.2444 63.2693 76.0947 63.8208 75.8965 64.3555C75.8439 64.4916 75.782 64.6239 75.7113 64.7515C75.6219 64.8728 75.5708 65.0261 75.3281 65.1028C75.266 65.1142 75.2019 65.1069 75.144 65.0819C75.086 65.0569 75.0367 65.0153 75.0024 64.9623C74.9577 64.8885 74.9233 64.809 74.9002 64.7259C74.8715 64.5871 74.8544 64.4461 74.8491 64.3044C74.8491 63.2123 74.996 62.2159 75.0535 61.2515C75.0951 60.7905 75.0951 60.3266 75.0535 59.8655C75.0535 59.6612 74.9577 59.4185 74.8427 59.3738C74.7622 59.3343 74.6737 59.3138 74.584 59.3138C74.4944 59.3138 74.4059 59.3343 74.3254 59.3738C74.0573 59.6617 73.8912 60.0297 73.8528 60.4212C73.7569 60.8108 73.7186 61.2068 73.6484 61.5836C73.3801 63.0909 73.0991 64.3938 72.965 65.454C72.902 65.9203 72.902 66.3929 72.965 66.8592C73.0544 67.2424 73.1885 67.5873 73.2588 67.8555C73.329 68.1238 73.3993 68.3154 73.444 68.4942C73.4678 68.5626 73.4849 68.6332 73.4951 68.705C73.4568 68.6431 73.4267 68.5766 73.4057 68.507L73.1885 67.8683C73.0991 67.5936 72.965 67.2871 72.8564 66.8655C72.7881 66.3868 72.7881 65.9008 72.8564 65.4221C72.9778 64.3427 73.2332 63.0526 73.4951 61.5389C73.5653 61.1621 73.6037 60.7661 73.6867 60.3573C73.7324 60.1414 73.79 59.9282 73.8591 59.7187C73.923 59.4864 74.0623 59.2819 74.2551 59.1374C74.3712 59.0759 74.5006 59.0438 74.6319 59.0438C74.7633 59.0438 74.8927 59.0759 75.0088 59.1374C75.1337 59.2162 75.2362 59.3256 75.3067 59.4554C75.3771 59.5851 75.4131 59.7307 75.4111 59.8783C75.4559 60.3584 75.4559 60.8416 75.4111 61.3218C75.3664 62.2926 75.2132 63.3081 75.2387 64.3427C75.2434 64.4651 75.2583 64.5869 75.2834 64.7068C75.2834 64.8281 75.3728 64.8792 75.36 64.8537C75.3473 64.8281 75.4814 64.7515 75.5325 64.6493C75.5955 64.536 75.6509 64.4186 75.6986 64.298C75.8877 63.7803 76.0268 63.2456 76.1137 62.7013C76.2223 62.1457 76.2606 61.5708 76.3372 60.9769C76.4139 60.3829 76.4905 59.7953 76.5863 59.1885C76.6821 58.5818 76.7907 57.975 76.9121 57.3555C77.0159 56.7085 77.196 56.0761 77.4486 55.4714C77.4996 55.37 77.5768 55.284 77.6721 55.2223C77.757 55.1758 77.847 55.1393 77.9403 55.1137C78.0475 55.0831 78.1599 55.0758 78.2701 55.0923C78.3803 55.1089 78.4856 55.1488 78.579 55.2095C78.7272 55.3272 78.8496 55.4741 78.9386 55.6411C79.0276 55.8081 79.0813 55.9917 79.0964 56.1803C79.1443 56.5278 79.1443 56.8803 79.0964 57.2278C79.0644 57.5535 79.0325 57.8665 79.0133 58.2241C78.8889 59.5845 78.9017 60.9539 79.0517 62.3117C79.079 62.473 79.1218 62.6313 79.1794 62.7843C79.1986 62.8461 79.2313 62.9029 79.2752 62.9504C79.2752 62.9504 79.2752 62.9504 79.3071 62.9504C79.3071 63.0973 79.3071 62.9504 79.3071 63.0079C79.3071 63.0654 79.3071 63.0079 79.3071 62.9568C79.3868 62.8501 79.4493 62.7315 79.4923 62.6055C79.552 62.448 79.6031 62.2819 79.6456 62.1073C79.8181 61.4303 79.933 60.715 80.0416 59.9997C80.2588 58.5626 80.4184 57.0873 80.5526 55.5927V55.6247C80.4958 55.0982 80.61 54.5675 80.8783 54.111C80.9807 53.9805 81.1213 53.8852 81.2804 53.8383C81.4395 53.7914 81.6092 53.7951 81.7661 53.8491C81.9 53.9235 82.0177 54.024 82.112 54.1446C82.2064 54.2653 82.2755 54.4038 82.3153 54.5517C82.5199 55.337 82.6039 56.1489 82.5644 56.9595C82.5644 57.7515 82.4942 58.5307 82.4239 59.3035C82.3537 60.0763 82.2579 60.8363 82.1493 61.59C82.0918 61.9732 82.0343 62.3436 81.9768 62.7205C81.9257 62.9568 81.9385 62.9632 81.9768 63.0334C82.0212 63.0634 82.0734 63.0794 82.1269 63.0794C82.1804 63.0794 82.2327 63.0634 82.277 63.0334C82.3537 62.976 82.3664 62.8674 82.3856 62.6566L82.4303 62.1009L82.5453 60.996C82.6219 60.2679 82.7241 59.5398 82.8454 58.8309C82.9636 58.1188 83.1344 57.4164 83.3564 56.7296C83.4724 56.3824 83.6288 56.0502 83.8226 55.7396C83.9281 55.5723 84.0673 55.4287 84.2314 55.3181C84.3224 55.2522 84.4279 55.2091 84.5391 55.1925C84.6502 55.1758 84.7637 55.186 84.8701 55.2223C84.9679 55.2827 85.0505 55.3648 85.1114 55.4623C85.1724 55.5597 85.21 55.67 85.2214 55.7843C85.2477 55.964 85.2584 56.1457 85.2533 56.3272C85.2533 56.6785 85.2086 57.017 85.1703 57.3555C85.0808 57.9942 84.9595 58.6712 84.8445 59.3163C84.5702 60.5295 84.4373 61.7705 84.4485 63.0143C84.4665 63.1478 84.5009 63.2787 84.5507 63.4039C84.5739 63.4492 84.6017 63.492 84.6338 63.5316C84.6338 63.5316 84.6338 63.5316 84.6338 63.4869C84.7772 63.256 84.8828 63.0038 84.9467 62.7396C85.1128 62.184 85.2469 61.6219 85.3938 61.0727C85.5255 60.5261 85.6854 59.9868 85.8728 59.4568C85.9613 59.1943 86.0769 58.9417 86.2177 58.7031C86.2939 58.5731 86.3935 58.4584 86.5115 58.3646C86.5757 58.309 86.6524 58.2695 86.735 58.2497C86.8176 58.2367 86.9016 58.2367 86.9841 58.2497C87.0713 58.2584 87.1545 58.2902 87.2253 58.3418C87.296 58.3935 87.3517 58.4631 87.3865 58.5435C87.4398 58.6777 87.468 58.8206 87.4695 58.965C87.4745 59.2234 87.4595 59.4817 87.4248 59.7378C87.3673 60.236 87.2715 60.7086 87.1821 61.1749C86.9969 62.0882 86.7925 62.9568 86.5434 63.7296C86.0644 65.3135 85.5854 66.6548 85.1958 67.7469C84.8062 68.8391 84.4741 69.663 84.2505 70.2506C84.142 70.5188 84.0526 70.7296 83.9887 70.8893C83.9601 70.9937 83.9194 71.0945 83.8673 71.1894Z" fill="#EB996E"/>
<path d="M49.002 89.1882C50.2155 93.4738 52.5914 100.084 55.1397 107.071C55.22 107.297 55.3654 107.493 55.5573 107.635C55.7493 107.778 55.9792 107.86 56.2179 107.871C56.4566 107.883 56.6934 107.824 56.8983 107.7C57.1032 107.577 57.2669 107.396 57.3687 107.18L63.6151 93.9656C63.6151 93.9656 62.1078 83.1079 62.2355 83.4975C62.3633 83.8871 49.3468 84.9027 49.3468 84.9027L49.002 89.1882Z" fill="#EC4C4C"/>
<path d="M63.0792 87.0618C63.0792 87.1129 62.3 87.3428 61.0673 87.8154C59.4564 88.4269 57.9044 89.1837 56.4305 90.0764C54.9586 90.9732 53.5693 91.9992 52.279 93.1421C51.2891 94.0171 50.7206 94.6174 50.6823 94.5791C50.644 94.5408 50.7909 94.4003 51.0336 94.1129C51.3757 93.7135 51.7381 93.3319 52.1194 92.9696C53.3783 91.7574 54.7661 90.6865 56.258 89.7762C57.7504 88.877 59.3349 88.1404 60.9843 87.5791C61.4829 87.4073 61.9903 87.2624 62.5044 87.1448C62.6903 87.0866 62.8844 87.0586 63.0792 87.0618Z" fill="#FAFAFA"/>
<path d="M65.5564 90.3566C65.1506 89.9474 64.7986 89.4881 64.509 88.9898C63.7631 87.8269 63.1219 86.6001 62.5929 85.3238C62.0636 84.0437 61.651 82.7183 61.3603 81.3639C61.2114 80.8099 61.1363 80.2387 61.1367 79.665C61.3272 80.2005 61.4788 80.7491 61.5902 81.3065C61.9323 82.629 62.359 83.9282 62.8676 85.1961C63.3989 86.4573 64.009 87.6838 64.6942 88.8685C65.0131 89.3456 65.3011 89.8427 65.5564 90.3566Z" fill="#263238"/>
<path d="M69.721 31.8405C68.6375 33.6264 67.9657 35.6314 67.7547 37.7096C67.5437 39.7878 67.7987 41.8869 68.5011 43.8542C69.1398 45.6105 70.1617 47.3414 69.9765 49.2063C69.7913 51.0713 68.3351 52.9171 68.846 54.7565C69.1526 55.8487 70.0851 56.6726 70.4491 57.7328C70.8643 59.0102 70.4491 60.3578 70.2256 61.6671C69.7146 65.0138 70.7876 68.3797 71.0495 71.7519C71.3113 75.1242 70.4108 79.0777 67.3962 80.5466C66.4829 80.9937 65.2885 81.1214 64.5285 80.4381C63.5577 79.5758 63.8259 78.0174 64.0942 76.7401C66.7383 63.9664 58.5696 51.4992 60.4345 38.5722C60.7347 36.5029 61.8907 32.9901 63.3789 31.5467C64.867 30.1033 68.9993 30.2693 70.4044 31.8022" fill="#263238"/>
<path d="M57.1392 68.8974C57.1392 68.8974 57.5288 68.4375 58.1036 67.5306C58.9102 66.2497 59.4752 64.8318 59.7705 63.3472C59.9632 62.3245 60.0297 61.282 59.9685 60.2432C59.8568 59.0352 59.812 57.822 59.8344 56.6091C59.8725 55.9448 59.9948 55.2881 60.1985 54.6547C60.4319 54.0022 60.727 53.3734 61.0798 52.7769C61.7952 51.5698 62.6957 50.4457 63.526 49.245C64.3786 48.1102 64.9717 46.802 65.2632 45.4129C65.4048 44.1044 65.3293 42.7816 65.0397 41.4978C64.7981 40.3045 64.7037 39.0862 64.7587 37.87C64.8347 36.8077 65.0494 35.7598 65.3974 34.7532C65.8852 33.2926 66.6532 31.941 67.6583 30.7742C67.9253 30.457 68.2156 30.1603 68.5269 29.8865C68.6256 29.7813 68.7372 29.689 68.859 29.6118C68.859 29.6118 68.4311 30.027 67.7541 30.8892C66.1416 32.8907 65.1988 35.3483 65.0589 37.9147C65.0161 39.111 65.1212 40.308 65.3718 41.4786C65.6765 42.7969 65.7585 44.1569 65.6145 45.5023C65.3118 46.9302 64.7015 48.2749 63.8262 49.443C62.9895 50.6629 62.089 51.7806 61.3864 52.9558C61.0409 53.5301 60.7541 54.1378 60.5306 54.7696C60.3285 55.3772 60.2062 56.0084 60.1665 56.6474C60.1383 57.8469 60.1724 59.0472 60.2687 60.2432C60.3194 61.303 60.2379 62.365 60.026 63.4047C59.706 64.9095 59.0988 66.3386 58.2377 67.6136C58.0046 67.9583 57.7485 68.2869 57.4713 68.5972C57.3719 68.7091 57.2605 68.8098 57.1392 68.8974Z" fill="#455A64"/>
<path d="M51.0845 69.8487C51.1359 69.6998 51.2023 69.5564 51.2825 69.4208C51.4421 69.1206 51.6465 68.7246 51.9211 68.2264C52.4576 67.1854 53.256 65.6717 54.0416 63.7557C55.0025 61.5178 55.5355 59.1196 55.6128 56.6854C55.6131 55.9841 55.5597 55.2837 55.4531 54.5905C55.3445 53.8752 55.1784 53.1535 55.0699 52.3998C54.937 51.6203 54.9544 50.8225 55.121 50.0495C55.3369 49.2558 55.7811 48.5429 56.3983 47.9993C57.5991 46.9071 59.0489 46.1918 59.8025 44.908C60.4555 43.6351 60.8402 42.2417 60.933 40.8141C61.0682 39.5053 61.3642 38.2182 61.8144 36.982C62.8267 34.3279 64.6305 32.0492 66.9814 30.4546C67.3561 30.2023 67.7465 29.9741 68.1501 29.7712C68.2864 29.6896 68.4323 29.6252 68.5845 29.5796C68.5845 29.5796 68.0096 29.8862 67.058 30.5632C65.7167 31.5203 64.5555 32.7074 63.6283 34.0695C62.9852 35.0033 62.4616 36.0139 62.0699 37.0778C61.6395 38.3169 61.3607 39.6037 61.2396 40.9099C61.048 42.2703 60.8947 43.7903 60.0772 45.138C59.2596 46.4856 57.7651 47.252 56.6219 48.3314C56.0392 48.837 55.6192 49.5036 55.4148 50.2474C55.2595 50.9788 55.2443 51.733 55.3701 52.4701C55.4722 53.2046 55.6319 53.9327 55.7405 54.6544C55.851 55.3642 55.9022 56.082 55.8938 56.8004C55.807 59.2792 55.2454 61.7183 54.2396 63.9856C53.5862 65.5178 52.8441 67.0106 52.017 68.4564L51.3399 69.4591C51.2688 69.5976 51.1832 69.7282 51.0845 69.8487Z" fill="#455A64"/>
<path d="M262.4 250.322C262.429 250.229 262.468 250.14 262.515 250.054C262.604 249.863 262.726 249.607 262.872 249.281C263.317 248.284 263.674 247.249 263.939 246.19C264.642 243.444 264.891 239.248 263.85 234.266C263.284 231.549 262.544 228.872 261.633 226.25C260.701 223.408 259.609 220.394 258.721 217.13C257.719 213.726 257.234 210.191 257.284 206.643C257.418 202.932 258.517 199.234 259.724 195.542C260.931 191.851 262.176 188.255 262.547 184.614C262.959 181.123 262.257 177.592 260.541 174.523C258.945 171.579 256.933 169.056 255.432 166.45C254.027 164.029 252.991 161.411 252.36 158.684C251.453 154.735 251.386 150.64 252.162 146.664C252.444 145.209 252.872 143.786 253.439 142.417C253.422 142.512 253.396 142.606 253.362 142.698L253.107 143.509C252.89 144.224 252.602 145.297 252.328 146.702C251.614 150.661 251.72 154.723 252.641 158.639C253.281 161.333 254.321 163.917 255.726 166.303C257.226 168.858 259.245 171.413 260.88 174.37C262.637 177.5 263.359 181.106 262.943 184.672C262.566 188.364 261.314 191.998 260.107 195.683C258.9 199.368 257.814 203.028 257.68 206.675C257.623 210.187 258.096 213.688 259.085 217.06C259.96 220.304 261.033 223.319 261.959 226.174C262.861 228.809 263.587 231.502 264.131 234.234C265.146 239.254 264.859 243.495 264.131 246.248C263.846 247.309 263.463 248.342 262.987 249.332L262.591 250.092C262.537 250.176 262.472 250.253 262.4 250.322Z" fill="#263238"/>
<path d="M257.476 169.024C257.476 169.024 254.423 159.246 259.903 153.523C259.945 153.477 260 153.444 260.06 153.427C260.12 153.41 260.184 153.41 260.245 153.428C260.305 153.445 260.359 153.478 260.401 153.525C260.444 153.571 260.472 153.628 260.484 153.69C260.778 155.305 261.142 160.223 257.476 169.024Z" fill="#EC4C4C"/>
<path d="M259.309 156.78C259.299 157.386 259.231 157.989 259.105 158.581C258.9 159.827 258.664 161.283 258.408 162.892C258.153 164.502 257.917 165.965 257.719 167.204C257.663 167.808 257.556 168.406 257.399 168.992C257.339 168.388 257.352 167.779 257.438 167.178C257.54 166.06 257.738 164.528 258.012 162.841C258.287 161.155 258.587 159.648 258.824 158.543C258.917 157.939 259.08 157.347 259.309 156.78Z" fill="#263238"/>
<path d="M261.065 192.087C261.065 192.087 262.937 182.015 270.461 179.524C270.52 179.504 270.584 179.5 270.645 179.513C270.706 179.527 270.763 179.557 270.808 179.601C270.853 179.645 270.885 179.7 270.9 179.761C270.916 179.822 270.914 179.886 270.895 179.946C270.397 181.498 268.423 186.013 261.065 192.087Z" fill="#EC4C4C"/>
<path d="M268.411 182.111C268.119 182.643 267.777 183.145 267.389 183.612L264.751 187.093L262.132 190.586C261.803 191.093 261.429 191.57 261.015 192.01C261.248 191.448 261.548 190.917 261.909 190.427C262.547 189.488 263.416 188.223 264.464 186.863C265.511 185.502 266.463 184.308 267.184 183.439C267.543 182.953 267.954 182.507 268.411 182.111Z" fill="#263238"/>
<path d="M259.035 217.334C259.035 217.334 257.898 207.153 264.374 202.587C264.424 202.548 264.484 202.524 264.547 202.518C264.61 202.512 264.674 202.524 264.73 202.553C264.787 202.581 264.834 202.626 264.866 202.681C264.897 202.735 264.913 202.798 264.911 202.861C264.892 204.503 264.31 209.395 259.035 217.334Z" fill="#EC4C4C"/>
<path d="M263.186 205.666C263.067 206.26 262.885 206.84 262.643 207.396L261.136 211.497C260.574 213.03 260.069 214.416 259.641 215.597C259.477 216.179 259.264 216.745 259.002 217.29C259.062 216.684 259.194 216.088 259.398 215.514C259.711 214.441 260.197 212.959 260.791 211.363C261.385 209.766 261.966 208.329 262.407 207.301C262.61 206.73 262.871 206.183 263.186 205.666Z" fill="#263238"/>
<path d="M264.7 242.741C264.7 242.741 263.933 232.522 270.563 228.192C270.615 228.156 270.676 228.136 270.739 228.133C270.801 228.13 270.864 228.144 270.919 228.175C270.974 228.205 271.02 228.251 271.05 228.305C271.081 228.36 271.096 228.423 271.093 228.486C271.016 230.127 270.263 235 264.7 242.741Z" fill="#EC4C4C"/>
<path d="M269.247 231.232C269.104 231.822 268.901 232.395 268.64 232.944C268.168 234.106 267.606 235.498 266.986 236.986C266.367 238.475 265.824 239.861 265.351 241.029C265.162 241.606 264.92 242.164 264.629 242.696C264.714 242.092 264.871 241.501 265.096 240.934C265.447 239.873 265.983 238.417 266.635 236.84C267.286 235.262 267.912 233.844 268.391 232.835C268.619 232.272 268.906 231.734 269.247 231.232Z" fill="#263238"/>
<path d="M253.082 160.433C253.082 160.433 244.026 155.681 243.828 147.768C243.827 147.706 243.843 147.645 243.875 147.591C243.906 147.538 243.951 147.494 244.005 147.464C244.06 147.434 244.121 147.419 244.183 147.421C244.245 147.422 244.305 147.441 244.358 147.474C245.705 148.407 249.448 151.626 253.082 160.433Z" fill="#EC4C4C"/>
<path d="M245.711 150.49C246.137 150.924 246.515 151.401 246.842 151.914C247.583 152.93 248.445 154.13 249.397 155.452L251.951 158.978C252.341 159.442 252.687 159.94 252.986 160.466C252.519 160.077 252.101 159.633 251.741 159.144C251.019 158.288 250.074 157.062 249.077 155.676C248.081 154.29 247.206 153.006 246.606 152.067C246.254 151.574 245.954 151.045 245.711 150.49Z" fill="#263238"/>
<path d="M262.834 181.427C262.834 181.427 253.484 177.244 252.826 169.343C252.821 169.281 252.833 169.219 252.86 169.163C252.888 169.108 252.931 169.061 252.984 169.028C253.037 168.995 253.098 168.977 253.16 168.976C253.222 168.975 253.283 168.992 253.337 169.024C254.736 169.873 258.664 172.85 262.834 181.427Z" fill="#EC4C4C"/>
<path d="M254.883 171.949C255.334 172.355 255.741 172.806 256.097 173.297L258.869 176.675L261.647 180.041C262.063 180.482 262.439 180.958 262.771 181.466C262.281 181.104 261.835 180.686 261.443 180.22C260.676 179.403 259.654 178.24 258.575 176.918C257.496 175.596 256.55 174.363 255.886 173.463C255.497 172.997 255.161 172.489 254.883 171.949Z" fill="#263238"/>
<path d="M257.437 204.861C257.437 204.861 251.051 196.877 254.033 189.533C254.057 189.475 254.096 189.425 254.146 189.388C254.196 189.351 254.256 189.329 254.318 189.323C254.38 189.318 254.442 189.33 254.498 189.358C254.554 189.386 254.601 189.429 254.634 189.481C255.521 190.867 257.648 195.313 257.437 204.861Z" fill="#EC4C4C"/>
<path d="M254.679 192.777C254.897 193.344 255.056 193.933 255.151 194.533C255.42 195.76 255.733 197.203 256.077 198.8C256.422 200.396 256.748 201.833 257.016 203.06C257.187 203.642 257.305 204.238 257.368 204.842C257.087 204.299 256.873 203.724 256.729 203.13C256.416 202.051 256.033 200.575 255.675 198.876C255.317 197.177 255.036 195.683 254.858 194.584C254.732 193.99 254.672 193.384 254.679 192.777Z" fill="#263238"/>
<path d="M263.824 232.394C263.824 232.394 254.544 228.058 254.021 220.151C254.014 220.088 254.026 220.024 254.054 219.967C254.082 219.911 254.126 219.863 254.18 219.83C254.234 219.796 254.296 219.779 254.359 219.779C254.422 219.78 254.484 219.798 254.538 219.831C255.911 220.706 259.788 223.753 263.824 232.394Z" fill="#EC4C4C"/>
<path d="M256.013 222.782C256.452 223.201 256.85 223.661 257.201 224.155L259.916 227.572L262.636 230.989C263.045 231.436 263.413 231.919 263.735 232.433C263.259 232.06 262.83 231.631 262.458 231.155C261.697 230.325 260.701 229.144 259.641 227.802C258.581 226.461 257.661 225.216 257.01 224.302C256.619 223.836 256.285 223.326 256.013 222.782Z" fill="#263238"/>
<path d="M282.289 192.131C282.289 192.131 282.289 192.208 282.289 192.355C282.289 192.502 282.289 192.744 282.289 192.994C282.289 193.632 282.225 194.443 282.18 195.478C282.065 197.662 281.893 200.709 281.695 204.349C281.056 208.054 279.14 212.161 276.585 216.152C274.727 219.09 272.753 221.76 271.093 224.244C269.577 226.425 268.215 228.708 267.018 231.078C266.225 232.68 265.583 234.352 265.102 236.073C264.942 236.68 264.814 237.159 264.744 237.484C264.714 237.654 264.669 237.821 264.61 237.983C264.612 237.81 264.634 237.639 264.674 237.472C264.718 237.14 264.814 236.654 264.961 236.035C265.391 234.284 266.001 232.582 266.781 230.957C267.968 228.568 269.328 226.269 270.85 224.078C272.523 221.575 274.458 218.899 276.311 215.98C278.833 212.007 280.711 207.964 281.42 204.317C281.676 200.683 281.886 197.643 282.059 195.459C282.142 194.424 282.212 193.6 282.263 192.981C282.263 192.725 282.308 192.508 282.327 192.342C282.305 192.274 282.292 192.203 282.289 192.131Z" fill="#263238"/>
<path d="M276.764 215.418C276.764 215.418 280.692 205.965 275.755 199.764C275.717 199.714 275.665 199.676 275.607 199.654C275.548 199.632 275.484 199.626 275.423 199.638C275.361 199.65 275.304 199.679 275.258 199.721C275.212 199.764 275.178 199.818 275.161 199.879C274.72 201.463 273.909 206.323 276.764 215.418Z" fill="#EC4C4C"/>
<path d="M276.049 203.065C276.218 203.648 276.323 204.248 276.362 204.854C276.502 205.965 276.656 207.504 276.777 209.21C276.898 210.915 276.956 212.46 276.956 213.585C276.994 214.191 276.958 214.801 276.847 215.398C276.737 214.802 276.684 214.197 276.688 213.591C276.605 212.314 276.502 210.864 276.394 209.235C276.285 207.606 276.183 206.131 276.094 204.879C276.019 204.278 276.004 203.67 276.049 203.065Z" fill="#263238"/>
<g opacity="0.3">
<path d="M276.764 215.418C276.764 215.418 280.692 205.965 275.755 199.764C275.717 199.714 275.665 199.676 275.607 199.654C275.548 199.632 275.484 199.626 275.423 199.638C275.361 199.65 275.304 199.679 275.258 199.721C275.212 199.764 275.178 199.818 275.161 199.879C274.72 201.463 273.909 206.323 276.764 215.418Z" fill="black"/>
</g>
<path d="M264.597 238.213C264.597 238.213 267.746 228.466 262.317 222.693C262.275 222.647 262.221 222.613 262.161 222.596C262.101 222.579 262.038 222.578 261.978 222.595C261.917 222.611 261.863 222.644 261.82 222.689C261.778 222.735 261.749 222.791 261.736 222.852C261.429 224.462 261.014 229.38 264.597 238.213Z" fill="#EC4C4C"/>
<path d="M262.879 225.937C263.1 226.505 263.255 227.096 263.339 227.7C263.569 228.792 263.843 230.318 264.105 232.005C264.367 233.691 264.546 235.23 264.642 236.348C264.725 236.951 264.735 237.562 264.674 238.168C264.522 237.581 264.419 236.983 264.367 236.38C264.182 235.134 263.965 233.678 263.728 232.062C263.492 230.446 263.262 228.99 263.09 227.744C262.96 227.15 262.89 226.545 262.879 225.937Z" fill="#263238"/>
<g opacity="0.3">
<path d="M264.597 238.213C264.597 238.213 267.746 228.466 262.317 222.693C262.275 222.647 262.221 222.613 262.161 222.596C262.101 222.579 262.038 222.578 261.978 222.595C261.917 222.611 261.863 222.644 261.82 222.689C261.778 222.735 261.749 222.791 261.736 222.852C261.429 224.462 261.014 229.38 264.597 238.213Z" fill="black"/>
</g>
<path d="M281.771 203.864C281.771 203.864 290.157 197.988 289.314 190.107C289.308 190.045 289.284 189.986 289.246 189.936C289.209 189.887 289.158 189.849 289.1 189.826C289.042 189.804 288.978 189.798 288.917 189.809C288.856 189.82 288.799 189.848 288.752 189.89C287.532 190.988 284.262 194.641 281.771 203.864Z" fill="#EC4C4C"/>
<g opacity="0.3">
<path d="M281.771 203.864C281.771 203.864 290.157 197.988 289.314 190.107C289.308 190.045 289.284 189.986 289.246 189.936C289.209 189.887 289.158 189.849 289.1 189.826C289.042 189.804 288.978 189.798 288.917 189.809C288.856 189.82 288.799 189.848 288.752 189.89C287.532 190.988 284.262 194.641 281.771 203.864Z" fill="black"/>
</g>
<path d="M287.794 193.051C287.628 193.636 287.394 194.199 287.098 194.731C286.619 195.74 285.923 197.119 285.112 198.626C284.301 200.134 283.521 201.469 282.921 202.414C282.626 202.945 282.268 203.438 281.854 203.883C282.079 203.321 282.357 202.782 282.685 202.273C283.285 201.168 283.994 199.878 284.773 198.441L286.855 194.609C287.117 194.06 287.431 193.538 287.794 193.051Z" fill="#263238"/>
<path d="M267.982 228.55C267.982 228.55 278.099 226.972 280.807 219.525C280.829 219.467 280.834 219.404 280.823 219.343C280.811 219.282 280.783 219.225 280.742 219.179C280.7 219.133 280.647 219.099 280.587 219.081C280.528 219.063 280.464 219.062 280.404 219.078C278.827 219.551 274.254 221.371 267.982 228.55Z" fill="#EC4C4C"/>
<g opacity="0.3">
<path d="M267.982 228.55C267.982 228.55 278.099 226.972 280.807 219.525C280.829 219.467 280.834 219.404 280.823 219.343C280.811 219.282 280.783 219.225 280.742 219.179C280.7 219.133 280.647 219.099 280.587 219.081C280.528 219.063 280.464 219.062 280.404 219.078C278.827 219.551 274.254 221.371 267.982 228.55Z" fill="black"/>
</g>
<path d="M278.15 221.499C277.74 221.946 277.282 222.347 276.784 222.693C275.909 223.395 274.676 224.328 273.29 225.324C271.904 226.321 270.608 227.17 269.65 227.758C269.15 228.106 268.609 228.391 268.04 228.607C268.493 228.203 268.983 227.842 269.503 227.528L273.066 225.011L276.624 222.457C277.097 222.084 277.609 221.763 278.15 221.499Z" fill="#263238"/>
<path d="M258.326 247.173L255.375 267.036H273.769L271.387 247.173H258.326Z" fill="#455A64"/>
<path d="M272.127 253.324C272.127 253.432 268.806 253.515 264.712 253.515C260.618 253.515 257.291 253.432 257.291 253.324C259.76 253.134 262.237 253.07 264.712 253.132C267.185 253.071 269.66 253.134 272.127 253.324Z" fill="#263238"/>
<path d="M272.485 254.908C272.485 255.017 269.055 255.1 264.82 255.1C260.586 255.1 257.156 255.017 257.156 254.908C257.156 254.8 260.586 254.717 264.82 254.717C269.055 254.717 272.485 254.8 272.485 254.908Z" fill="#263238"/>
<path d="M200.959 54.4762C200.959 54.4762 200.787 54.4762 200.455 54.4762C199.97 54.4474 199.483 54.4474 198.998 54.4762C197.122 54.586 195.28 55.0181 193.55 55.7535C190.809 56.9025 188.424 58.7609 186.64 61.1377C185.54 62.6217 184.721 64.2951 184.226 66.0747C183.108 70.3138 183.712 74.8229 185.905 78.6185C186.503 79.6693 187.233 80.6395 188.077 81.5053C188.928 82.4227 189.92 83.1988 191.015 83.8046C192.138 84.4369 193.411 84.7567 194.7 84.7307C196.029 84.7148 197.303 84.1995 198.27 83.2873C198.738 82.7976 199.104 82.2207 199.348 81.5895C199.593 80.9583 199.71 80.2851 199.694 79.6084C199.685 78.2026 199.238 76.8344 198.417 75.6933C196.763 73.3621 194.08 71.7973 191.226 70.9543C188.265 70.1228 185.139 70.0788 182.156 70.8265C180.634 71.2226 179.166 71.8061 177.788 72.5637C176.396 73.3492 175.132 74.342 174.039 75.5081C173.777 75.8083 173.476 76.0829 173.24 76.415L172.518 77.3858C172.08 78.0699 171.687 78.7826 171.343 79.519C170.66 81.0143 170.193 82.5992 169.957 84.2261C169.494 87.4763 169.936 90.7913 171.235 93.8064C172.476 96.7526 174.639 99.2174 177.398 100.832C178.736 101.596 180.229 102.048 181.767 102.154C183.274 102.238 184.773 101.879 186.078 101.119C187.373 100.404 188.396 99.2813 188.99 97.926C189.55 96.5901 189.589 95.0928 189.099 93.7298C188.594 92.4147 187.768 91.2467 186.697 90.332C185.658 89.4341 184.46 88.7387 183.165 88.2818C180.64 87.4855 177.938 87.4389 175.386 88.1477C172.999 88.7946 170.806 90.0159 168.999 91.7051C167.354 93.2817 166.1 95.222 165.34 97.3703C164.009 101.098 164.07 105.181 165.512 108.867C166.636 111.618 168.446 114.037 170.768 115.892C172.231 117.066 173.861 118.015 175.603 118.709C176.204 118.932 176.67 119.098 176.989 119.188L177.462 119.341C177.462 119.341 177.296 119.309 176.976 119.22C176.505 119.093 176.04 118.942 175.584 118.766C173.819 118.103 172.168 117.168 170.692 115.994C168.33 114.14 166.485 111.71 165.333 108.937C163.866 105.216 163.791 101.091 165.122 97.3192C165.884 95.1383 167.152 93.1686 168.82 91.571C170.653 89.8479 172.878 88.5982 175.303 87.9305C177.908 87.2037 180.668 87.2481 183.248 88.0583C184.581 88.5231 185.814 89.2361 186.882 90.1595C187.996 91.1042 188.852 92.3147 189.373 93.6787C189.899 95.1027 189.876 96.6711 189.309 98.0792C188.679 99.488 187.611 100.655 186.263 101.407C184.91 102.195 183.356 102.573 181.792 102.493C180.217 102.383 178.688 101.915 177.321 101.126C174.499 99.4886 172.283 96.9811 171.005 93.9789C169.678 90.9085 169.223 87.5319 169.689 84.2198C169.933 82.5599 170.41 80.943 171.107 79.4168C171.458 78.6647 171.859 77.9371 172.308 77.2389L173.049 76.249C173.285 75.9105 173.591 75.6103 173.86 75.3165C174.978 74.1283 176.27 73.1163 177.692 72.3147C179.103 71.5426 180.605 70.9504 182.163 70.5519C185.202 69.7902 188.388 69.8364 191.404 70.686C194.317 71.5546 197.044 73.145 198.762 75.5592C199.626 76.7479 200.095 78.1775 200.103 79.6468C200.134 81.0927 199.59 82.4918 198.59 83.5364C197.568 84.4956 196.223 85.0358 194.821 85.05C193.48 85.0805 192.156 84.7472 190.989 84.0856C189.868 83.467 188.854 82.6712 187.987 81.7289C187.132 80.8436 186.392 79.8544 185.784 78.7845C183.551 74.9184 182.945 70.3239 184.098 66.0108C184.609 64.2107 185.447 62.5198 186.57 61.0227C188.387 58.6279 190.813 56.7642 193.595 55.6258C195.339 54.9046 197.196 54.498 199.081 54.4251C199.57 54.3928 200.061 54.3928 200.55 54.4251L200.959 54.4762Z" fill="#263238"/>
<path d="M222.284 118.383H132.734V187.45H222.284V118.383Z" fill="#EC4C4C"/>
<path d="M132.734 118.383L149.276 133.813H237.306L222.284 118.383H132.734Z" fill="#EC4C4C"/>
<path d="M132.734 118.383L222.31 118.223H222.38L222.431 118.268L237.299 133.539L237.453 133.698L237.727 133.98H237.331L149.301 133.909H149.263L132.734 118.383L149.34 133.711H149.269L237.299 133.647L237.185 133.928L237.025 133.769L222.163 118.498L222.278 118.549L132.734 118.383Z" fill="#263238"/>
<path d="M159.636 150.234C159.151 150.251 158.692 150.459 158.358 150.811C158.024 151.164 157.842 151.633 157.851 152.118C157.86 152.604 158.059 153.066 158.405 153.406C158.751 153.746 159.217 153.937 159.703 153.937C160.188 153.937 160.654 153.746 161.001 153.406C161.347 153.066 161.546 152.604 161.555 152.118C161.563 151.633 161.381 151.164 161.048 150.811C160.714 150.459 160.255 150.251 159.77 150.234" fill="#263238"/>
<path d="M180.796 150.234C180.312 150.252 179.856 150.459 179.524 150.811C179.192 151.162 179.011 151.63 179.02 152.113C179.03 152.597 179.228 153.057 179.573 153.396C179.918 153.734 180.382 153.924 180.866 153.924C181.349 153.924 181.813 153.734 182.159 153.396C182.504 153.057 182.702 152.597 182.711 152.113C182.72 151.63 182.54 151.162 182.208 150.811C181.876 150.459 181.419 150.252 180.936 150.234" fill="#263238"/>
<path d="M180.917 166.763C180.547 165.352 179.947 164.012 179.141 162.797C178.244 161.497 177.092 160.393 175.756 159.552C174.144 158.482 172.263 157.887 170.329 157.834C168.394 157.781 166.484 158.272 164.815 159.252C163.437 160.021 162.227 161.06 161.258 162.305C160.385 163.475 159.713 164.783 159.271 166.175C159.276 166.071 159.294 165.969 159.323 165.869C159.384 165.581 159.463 165.297 159.559 165.019C159.909 163.993 160.42 163.03 161.073 162.164C162.035 160.861 163.26 159.773 164.668 158.971C166.38 157.949 168.347 157.435 170.34 157.49C172.332 157.544 174.269 158.164 175.922 159.278C177.282 160.151 178.443 161.3 179.333 162.65C179.939 163.551 180.399 164.542 180.693 165.588C180.772 165.871 180.833 166.159 180.878 166.45C180.9 166.553 180.913 166.658 180.917 166.763Z" fill="#263238"/>
<path opacity="0.5" d="M132.938 119.143L148.778 139.223H222.284V133.813H149.276L132.938 119.143Z" fill="black"/>
<path d="M204.625 187.297C204.535 187.297 204.458 175.283 204.458 160.472C204.458 145.661 204.535 133.647 204.625 133.647C204.714 133.647 204.797 145.655 204.797 160.472C204.797 175.29 204.72 187.297 204.625 187.297Z" fill="#263238"/>
<path d="M218.689 171.636H210.795V180.559H218.689V171.636Z" fill="#F5F5F5"/>
<path d="M132.734 118.383L114.353 133.813H132.734V118.383Z" fill="#EC4C4C"/>
<g opacity="0.4">
<path d="M132.734 118.383L114.353 133.814H132.734V118.383Z" fill="black"/>
</g>
<path d="M224.929 187.45H121.966V266.864H224.929V187.45Z" fill="#EC4C4C"/>
<path opacity="0.3" d="M224.929 187.45H121.966V266.864H224.929V187.45Z" fill="black"/>
<path d="M199.132 266.303C199.043 266.303 198.966 248.605 198.966 226.774C198.966 204.944 199.043 187.24 199.132 187.24C199.222 187.24 199.298 204.938 199.298 226.774C199.298 248.611 199.222 266.303 199.132 266.303Z" fill="#263238"/>
<path d="M216.198 248.79H208.304V257.712H216.198V248.79Z" fill="#F5F5F5"/>
<path d="M165.071 187.661H153.377V204.605H165.071V187.661Z" fill="#263238"/>
<path d="M165.071 249.684H153.377V266.628H165.071V249.684Z" fill="#263238"/>
<path d="M224.035 187.45H223.766H222.994L220.024 187.482L209.083 187.533L173.004 187.616L136.912 187.572L125.977 187.521L123.007 187.489L125.977 187.457L136.912 187.406L173.004 187.354L209.083 187.406L220.024 187.457L222.994 187.489H223.766L224.035 187.45Z" fill="#263238"/>
<path d="M47.5783 49.96L36.363 47.2009H36.446C33.5502 49.0429 30.2015 50.0486 26.7699 50.1069C24.7384 50.1162 22.7169 49.8212 20.7727 49.2319C17.3545 48.1344 14.322 46.0813 12.0335 43.3152C9.74507 40.5491 8.2963 37.1857 7.85846 33.6225C7.51458 30.9276 7.76773 28.1901 8.59995 25.604C9.43218 23.0179 10.8231 20.6466 12.6741 18.6581C13.6472 17.5893 14.7377 16.6337 15.9251 15.8095C16.5254 15.4327 17.1258 15.0431 17.7517 14.7174L18.7033 14.2575L19.176 14.0276L19.6741 13.8488C22.2387 12.8547 24.9899 12.4339 27.7343 12.6161C31.4125 12.8549 34.9377 14.1772 37.8655 16.4163C40.7934 18.6554 42.9929 21.711 44.1869 25.1982C44.8502 27.1489 45.1995 29.1926 45.2216 31.2529C45.2376 34.677 44.307 38.0388 42.5327 40.9673V40.8651C45.6495 46.492 47.2206 49.3341 47.5719 49.96C47.2079 49.3213 45.5792 46.5303 42.3539 40.9609V40.9099V40.8588C44.0645 37.9586 44.948 34.6453 44.9086 31.2785C44.879 29.2512 44.5253 27.2416 43.8612 25.3259C42.6801 21.9101 40.5177 18.9186 37.6445 16.7259C34.7714 14.5333 31.3152 13.237 27.7088 12.9993C25.0184 12.824 22.3221 13.2381 19.8083 14.2128L19.3229 14.3853L18.8566 14.6152L17.9241 15.0623C17.2855 15.388 16.7234 15.7648 16.1294 16.1353C14.965 16.9374 13.8939 17.8671 12.936 18.9071C11.1188 20.8592 9.75297 23.1869 8.93513 25.7254C8.11729 28.2639 7.86747 30.9512 8.20335 33.5969C8.79547 38.4441 11.2823 42.8597 15.1203 45.8788C16.8362 47.2384 18.7835 48.277 20.8685 48.9445C22.7778 49.5347 24.7651 49.834 26.7635 49.8323C30.154 49.796 33.4688 48.8258 36.3438 47.0285H36.3821H36.4524L47.5783 49.96Z" fill="#263238"/>
<path d="M24.9551 23.026L25.5235 32.4147C25.5462 32.785 25.7035 33.1343 25.9659 33.3966C26.2282 33.6589 26.5775 33.8163 26.9478 33.839C27.3374 33.861 27.7207 33.7329 28.0189 33.4811C28.317 33.2293 28.5074 32.8728 28.5509 32.485L29.5919 23.0771C29.6101 22.9088 29.5922 22.7386 29.5396 22.5777C29.4869 22.4168 29.4006 22.2689 29.2865 22.1439C29.1723 22.0189 29.0329 21.9196 28.8775 21.8525C28.722 21.7855 28.5541 21.7523 28.3848 21.755H26.1047C25.9447 21.7598 25.7874 21.7969 25.642 21.864C25.4967 21.9311 25.3665 22.0269 25.2591 22.1456C25.1517 22.2643 25.0694 22.4035 25.0172 22.5548C24.965 22.7061 24.9438 22.8664 24.9551 23.026Z" fill="#EC4C4C"/>
<path d="M29.4269 39.0826C29.284 39.5115 29.0171 39.8884 28.6601 40.1657C28.303 40.4429 27.8718 40.6081 27.4209 40.6404C26.97 40.6727 26.5196 40.5705 26.1267 40.3469C25.7338 40.1233 25.416 39.7883 25.2135 39.3841C25.011 38.9799 24.9328 38.5248 24.9888 38.0762C25.0449 37.6276 25.2327 37.2057 25.5284 36.8638C25.8242 36.5219 26.2147 36.2754 26.6505 36.1553C27.0863 36.0353 27.548 36.0471 27.9771 36.1894C28.2624 36.2839 28.5263 36.4338 28.7536 36.6305C28.9809 36.8271 29.1672 37.0667 29.3019 37.3354C29.4365 37.6041 29.5169 37.8967 29.5383 38.1965C29.5598 38.4964 29.5219 38.7975 29.4269 39.0826Z" fill="#EC4C4C"/>
</svg>
