<svg width="116" height="20" viewBox="0 0 116 20" fill="none" xmlns="http://www.w3.org/2000/svg">
<g clip-path="url(#clip0_18_530)">
<path d="M9.88628 2.99654L9.49468 5.72654H3.87401V9.59988H8.78058V12.2832H3.87401V16.4132H9.88628V19.1665H0.0961914V2.99654H9.88628ZM11.2877 13.2865V10.4399H18.636V13.2865H11.2877ZM73.4488 19.1665L72.6196 15.6899H67.9664L67.1602 19.1665H63.2441L68.0586 2.99654H72.6426L77.457 19.1665H73.4488ZM68.6114 12.9132H71.9746L70.293 5.77321L68.6114 12.9132ZM85.7232 6.37988C86.7828 6.37988 87.6121 6.70654 88.211 7.35988C88.81 8.01321 89.1094 8.93096 89.1094 10.1132V19.1665H85.4698V10.7432C85.4698 10.121 85.3703 9.69321 85.1704 9.45988C84.9861 9.21096 84.7022 9.08654 84.318 9.08654C83.5809 9.08654 82.8742 9.62321 82.1987 10.6965V19.1665H78.5591V6.77654H81.738L81.9914 8.24654C82.5139 7.62432 83.0741 7.15765 83.6731 6.84654C84.2876 6.53543 84.9704 6.37988 85.7232 6.37988ZM101.575 15.5732C101.575 16.0399 101.637 16.3821 101.759 16.5999C101.897 16.8176 102.112 16.981 102.404 17.0899L101.644 19.4932C100.891 19.431 100.278 19.2676 99.8012 19.0032C99.3248 18.7232 98.9563 18.2876 98.6955 17.6965C97.8966 18.941 96.6683 19.5632 95.0098 19.5632C93.7963 19.5632 92.8288 19.2055 92.1073 18.4899C91.3858 17.7743 91.0247 16.841 91.0247 15.6899C91.0247 14.3365 91.5158 13.3021 92.4989 12.5865C93.482 11.871 94.902 11.5132 96.7605 11.5132H98.0044V10.9765C98.0044 10.2455 97.8506 9.74763 97.5437 9.48321C97.2368 9.20321 96.6988 9.06321 95.9312 9.06321C95.5322 9.06321 95.0485 9.12546 94.48 9.24988C93.9115 9.35879 93.3282 9.51429 92.7293 9.71654L91.9 7.28988C92.6676 6.99432 93.4508 6.76877 94.2496 6.61321C95.0633 6.45765 95.816 6.37988 96.5071 6.37988C98.2578 6.37988 99.5404 6.74543 100.354 7.47654C101.168 8.20765 101.575 9.30429 101.575 10.7665V15.5732ZM96.0694 16.9265C96.8987 16.9265 97.5437 16.5299 98.0044 15.7365V13.5432H97.106C96.2767 13.5432 95.6548 13.691 95.2401 13.9865C94.8411 14.2821 94.6412 14.741 94.6412 15.3632C94.6412 15.861 94.7638 16.2499 95.0098 16.5299C95.2706 16.7943 95.6244 16.9265 96.0694 16.9265ZM108.114 1.45654V19.1665H104.474V1.85321L108.114 1.45654ZM115.669 6.77654L111.961 12.2132L115.969 19.1665H111.868L108.229 12.3999L111.961 6.77654H115.669Z" fill="#222831"/>
<path d="M28.0628 2.59983C30.1207 2.59983 31.8944 3.26094 33.384 4.58316L31.4721 6.61316C30.9039 6.17761 30.3741 5.8665 29.8826 5.67983C29.4066 5.47761 28.8537 5.3765 28.2241 5.3765C27.0416 5.3765 26.0971 5.85094 25.3907 6.79983C24.6843 7.73316 24.3311 9.1565 24.3311 11.0698C24.3311 13.1387 24.5998 14.6087 25.1373 15.4798C25.6749 16.3354 26.5118 16.7632 27.6482 16.7632C28.4468 16.7632 29.1685 16.5842 29.8135 16.2265V12.5632H27.7403L27.3717 9.8565H33.4761V17.8598C32.6469 18.4042 31.7332 18.8242 30.7349 19.1198C29.7368 19.4154 28.7386 19.5632 27.7403 19.5632C25.3139 19.5632 23.4865 18.8476 22.2579 17.4165C21.0293 15.9698 20.415 13.8542 20.415 11.0698C20.415 9.2965 20.7453 7.77206 21.4056 6.4965C22.0813 5.22094 22.995 4.2565 24.1468 3.60316C25.3139 2.93427 26.6193 2.59983 28.0628 2.59983ZM39.5698 6.7765V19.1665H35.9302V6.7765H39.5698ZM37.7269 0.243164C38.3565 0.243164 38.8711 0.445387 39.2703 0.849832C39.6849 1.23872 39.8923 1.7365 39.8923 2.34316C39.8923 2.94983 39.6849 3.45539 39.2703 3.85983C38.8711 4.24872 38.3565 4.44316 37.7269 4.44316C37.0973 4.44316 36.5828 4.24872 36.1836 3.85983C35.7843 3.45539 35.5846 2.94983 35.5846 2.34316C35.5846 1.7365 35.7843 1.23872 36.1836 0.849832C36.5828 0.445387 37.0973 0.243164 37.7269 0.243164ZM51.0466 6.7765V9.3665L45.5181 16.3665H51.1618L50.8393 19.1665H41.3026V16.5532L46.8542 9.55316H41.7864V6.7765H51.0466ZM56.6439 6.7765V19.1665H53.0043V6.7765H56.6439ZM54.8011 0.243164C55.4307 0.243164 55.9452 0.445387 56.3444 0.849832C56.7591 1.23872 56.9664 1.7365 56.9664 2.34316C56.9664 2.94983 56.7591 3.45539 56.3444 3.85983C55.9452 4.24872 55.4307 4.44316 54.8011 4.44316C54.1714 4.44316 53.6569 4.24872 53.2577 3.85983C52.8584 3.45539 52.6588 2.94983 52.6588 2.34316C52.6588 1.7365 52.8584 1.23872 53.2577 0.849832C53.6569 0.445387 54.1714 0.243164 54.8011 0.243164Z" fill="#EC4C4C"/>
</g>
<defs>
<clipPath id="clip0_18_530">
<rect width="116" height="20" fill="white"/>
</clipPath>
</defs>
</svg>
