<svg width="141" height="24" viewBox="0 0 141 24" fill="none" xmlns="http://www.w3.org/2000/svg">
<path d="M12.0169 3.596L11.5409 6.872H4.70888V11.52H10.6729V14.74H4.70888V19.696H12.0169V23H0.116875V3.596H12.0169ZM13.7203 15.944V12.528H22.6523V15.944H13.7203ZM89.2783 23L88.2703 18.828H82.6143L81.6343 23H76.8743L82.7263 3.596H88.2983L94.1503 23H89.2783ZM83.3983 15.496H87.4863L85.4423 6.928L83.3983 15.496ZM104.198 7.656C105.486 7.656 106.494 8.048 107.222 8.832C107.95 9.616 108.314 10.7173 108.314 12.136V23H103.89V12.892C103.89 12.1453 103.769 11.632 103.526 11.352C103.302 11.0533 102.957 10.904 102.49 10.904C101.594 10.904 100.735 11.548 99.9139 12.836V23H95.4899V8.132H99.3539L99.6619 9.896C100.297 9.14933 100.978 8.58933 101.706 8.216C102.453 7.84267 103.283 7.656 104.198 7.656ZM123.466 18.688C123.466 19.248 123.541 19.6587 123.69 19.92C123.858 20.1813 124.119 20.3773 124.474 20.508L123.55 23.392C122.635 23.3173 121.889 23.1213 121.31 22.804C120.731 22.468 120.283 21.9453 119.966 21.236C118.995 22.7293 117.502 23.476 115.486 23.476C114.011 23.476 112.835 23.0467 111.958 22.188C111.081 21.3293 110.642 20.2093 110.642 18.828C110.642 17.204 111.239 15.9627 112.434 15.104C113.629 14.2453 115.355 13.816 117.614 13.816H119.126V13.172C119.126 12.2947 118.939 11.6973 118.566 11.38C118.193 11.044 117.539 10.876 116.606 10.876C116.121 10.876 115.533 10.9507 114.842 11.1C114.151 11.2307 113.442 11.4173 112.714 11.66L111.706 8.748C112.639 8.39333 113.591 8.12267 114.562 7.936C115.551 7.74933 116.466 7.656 117.306 7.656C119.434 7.656 120.993 8.09467 121.982 8.972C122.971 9.84933 123.466 11.1653 123.466 12.92V18.688ZM116.774 20.312C117.782 20.312 118.566 19.836 119.126 18.884V16.252H118.034C117.026 16.252 116.27 16.4293 115.766 16.784C115.281 17.1387 115.038 17.6893 115.038 18.436C115.038 19.0333 115.187 19.5 115.486 19.836C115.803 20.1533 116.233 20.312 116.774 20.312ZM131.414 1.748V23H126.99V2.224L131.414 1.748ZM140.598 8.132L136.09 14.656L140.962 23H135.978L131.554 14.88L136.09 8.132H140.598Z" fill="#222831"/>
<path d="M34.1106 3.12C36.612 3.12 38.768 3.91333 40.5786 5.5L38.2546 7.936C37.564 7.41333 36.92 7.04 36.3226 6.816C35.744 6.57333 35.072 6.452 34.3066 6.452C32.8693 6.452 31.7213 7.02133 30.8626 8.16C30.004 9.28 29.5746 10.988 29.5746 13.284C29.5746 15.7667 29.9013 17.5307 30.5546 18.576C31.208 19.6027 32.2253 20.116 33.6066 20.116C34.5773 20.116 35.4546 19.9013 36.2386 19.472V15.076H33.7186L33.2706 11.828H40.6906V21.432C39.6826 22.0853 38.572 22.5893 37.3586 22.944C36.1453 23.2987 34.932 23.476 33.7186 23.476C30.7693 23.476 28.548 22.6173 27.0546 20.9C25.5613 19.164 24.8146 16.6253 24.8146 13.284C24.8146 11.156 25.216 9.32667 26.0186 7.796C26.84 6.26533 27.9506 5.108 29.3506 4.324C30.7693 3.52133 32.356 3.12 34.1106 3.12ZM48.0975 8.132V23H43.6735V8.132H48.0975ZM45.8575 0.291999C46.6228 0.291999 47.2482 0.534666 47.7335 1.02C48.2375 1.48667 48.4895 2.084 48.4895 2.812C48.4895 3.54 48.2375 4.14667 47.7335 4.632C47.2482 5.09867 46.6228 5.332 45.8575 5.332C45.0922 5.332 44.4668 5.09867 43.9815 4.632C43.4962 4.14667 43.2535 3.54 43.2535 2.812C43.2535 2.084 43.4962 1.48667 43.9815 1.02C44.4668 0.534666 45.0922 0.291999 45.8575 0.291999ZM62.0478 8.132V11.24L55.3278 19.64H62.1878L61.7958 23H50.2038V19.864L56.9518 11.464H50.7918V8.132H62.0478ZM68.8514 8.132V23H64.4274V8.132H68.8514ZM66.6114 0.291999C67.3767 0.291999 68.0021 0.534666 68.4874 1.02C68.9914 1.48667 69.2434 2.084 69.2434 2.812C69.2434 3.54 68.9914 4.14667 68.4874 4.632C68.0021 5.09867 67.3767 5.332 66.6114 5.332C65.8461 5.332 65.2207 5.09867 64.7354 4.632C64.2501 4.14667 64.0074 3.54 64.0074 2.812C64.0074 2.084 64.2501 1.48667 64.7354 1.02C65.2207 0.534666 65.8461 0.291999 66.6114 0.291999Z" fill="#EC4C4C"/>
</svg>
