<svg width="31" height="34" viewBox="0 0 31 34" fill="none" xmlns="http://www.w3.org/2000/svg">
<path d="M0 28.417H31V32.7225H0V28.417Z" fill="#B0BEC5"/>
<path d="M12.917 22.3887H18.0837V28.4164H12.917V22.3887Z" fill="#455A64"/>
<path d="M15.4999 2.53906C14.2501 2.53906 13.0126 2.78523 11.8579 3.2635C10.7033 3.74177 9.65411 4.44279 8.77038 5.32653C7.88664 6.21026 7.18562 7.25941 6.70735 8.41406C6.22907 9.56872 5.98291 10.8063 5.98291 12.0561C5.98291 13.3059 6.22907 14.5434 6.70735 15.6981C7.18562 16.8527 7.88664 17.9019 8.77038 18.7856C9.65411 19.6693 10.7033 20.3703 11.8579 20.8486C13.0126 21.3269 14.2501 21.5731 15.4999 21.5731C16.7497 21.5731 17.9873 21.3269 19.1419 20.8486C20.2966 20.3703 21.3457 19.6693 22.2294 18.7856C23.1132 17.9019 23.8142 16.8527 24.2925 15.6981C24.7707 14.5434 25.0169 13.3059 25.0169 12.0561C25.0169 10.8063 24.7707 9.56872 24.2925 8.41406C23.8142 7.25941 23.1132 6.21026 22.2294 5.32653C21.3457 4.44279 20.2966 3.74177 19.1419 3.2635C17.9873 2.78523 16.7497 2.53906 15.4999 2.53906Z" fill="#EEEEEE"/>
<path d="M9.99045 16.3099L7.59484 18.7046C7.96942 19.149 8.38017 19.5597 8.82364 19.936L11.2201 17.5395L9.99045 16.3099ZM8.56961 11.1932H5.21042C5.18631 11.4782 5.1665 11.7641 5.1665 12.056C5.1665 12.3522 5.18631 12.6433 5.21042 12.9326H8.56875L8.56961 11.1932ZM9.97323 7.79091L11.2029 6.56124L8.8202 4.17854C8.37759 4.55485 7.96598 4.9656 7.59225 5.40993L9.97323 7.79091ZM16.3437 1.76571C16.0647 1.74332 15.7849 1.72266 15.4998 1.72266C15.1976 1.72266 14.9005 1.7416 14.6051 1.7683V5.16882H16.3446V1.76571H16.3437Z" fill="#90A4AE"/>
<path d="M20.3701 16.926L22.8062 19.3621C24.6765 17.4918 25.833 14.9084 25.833 12.0556C25.833 9.30863 24.7532 6.8183 23.0051 4.96777L20.5036 7.3298C21.6687 8.56377 22.3886 10.224 22.3886 12.0556C22.3886 13.9578 21.617 15.68 20.3701 16.926Z" fill="#FF1744"/>
<path d="M14.4208 10.2048C13.3978 10.8041 13.0602 12.1216 13.6682 13.148C14.2744 14.1762 15.5936 14.5224 16.6166 13.9213C17.6396 13.3246 17.9763 12.0053 17.3684 10.9798C16.7621 9.95246 15.4421 9.60457 14.4208 10.2048Z" fill="#263238"/>
<path d="M21.5276 6.36719L16.869 12.5405L15.0942 10.7003L21.5276 6.36719Z" fill="#263238"/>
<path d="M15.5004 0C8.84227 0 3.44482 5.39744 3.44482 12.0556C3.44482 18.7137 8.84227 24.1111 15.5004 24.1111C22.1585 24.1111 27.5559 18.7137 27.5559 12.0556C27.5559 5.39744 22.1585 0 15.5004 0ZM15.5004 21.5278C10.27 21.5278 6.02816 17.2868 6.02816 12.0556C6.02816 6.82431 10.27 2.58333 15.5004 2.58333C20.7308 2.58333 24.9726 6.82431 24.9726 12.0556C24.9726 17.2868 20.7308 21.5278 15.5004 21.5278Z" fill="#00ACC1"/>
<path d="M15.0771 11.3203C14.6698 11.5563 14.5363 12.0885 14.7783 12.4975C15.0203 12.9091 15.5507 13.0469 15.958 12.8075C16.3671 12.5681 16.5031 12.0385 16.2594 11.6269C16.0166 11.2179 15.487 11.0801 15.0771 11.3203Z" fill="#4DD0E1"/>
<path d="M19.8054 32.7218C19.8054 33.198 19.4205 33.583 18.9443 33.583H12.0554C11.5801 33.583 11.1943 33.198 11.1943 32.7218V28.4163C11.1943 27.9401 11.5801 27.5552 12.0554 27.5552H18.9443C19.4205 27.5552 19.8054 27.9401 19.8054 28.4163V32.7218Z" fill="#78909C"/>
</svg>
