<svg width="24" height="38" viewBox="0 0 24 38" fill="none" xmlns="http://www.w3.org/2000/svg">
<path d="M6.5 28.833V27C6.5 25.086 5.332 23.24 3.98 21.103C2.349 18.525 0.5 15.603 0.5 12C0.5 5.659 5.659 0.5 12 0.5C18.341 0.5 23.5 5.659 23.5 12C23.5 15.603 21.651 18.525 20.02 21.103C18.668 23.24 17.5 25.086 17.5 27V28.833H6.5Z" fill="#FFEEA3"/>
<path d="M12 1C18.065 1 23 5.935 23 12C23 15.458 21.192 18.315 19.598 20.835C18.262 22.947 17 24.941 17 27V28.333H12H7V27C7 24.941 5.738 22.947 4.402 20.835C2.808 18.315 1 15.458 1 12C1 5.935 5.935 1 12 1ZM12 0C5.373 0 0 5.373 0 12C0 18.667 6 22.958 6 27V29.333H12H18V27C18 22.958 24 18.667 24 12C24 5.373 18.627 0 12 0Z" fill="#BA9B48"/>
<path d="M14.7138 10.335C15.2158 10.335 15.6878 10.53 16.0428 10.885C16.7758 11.618 16.7758 12.81 16.0428 13.542L14.2928 15.292L13.9998 15.586V16V28H9.99976V16V15.586L9.70676 15.293L7.95676 13.543C7.22376 12.81 7.22376 11.618 7.95676 10.886C8.31176 10.531 8.78376 10.336 9.28576 10.336C9.78776 10.336 10.2598 10.531 10.6148 10.886L11.2938 11.565L11.9998 12.271L12.7068 11.564L13.3858 10.885C13.7408 10.531 14.2118 10.335 14.7138 10.335ZM14.7138 9.33496C13.9768 9.33496 13.2398 9.61596 12.6778 10.178L11.9998 10.857L11.3208 10.178C10.7588 9.61596 10.0218 9.33496 9.28476 9.33496C8.54776 9.33496 7.81076 9.61596 7.24876 10.178C6.12476 11.302 6.12476 13.125 7.24876 14.249L8.99976 16V29H14.9998V16L16.7498 14.25C17.8738 13.126 17.8738 11.303 16.7498 10.179C16.1878 9.61596 15.4508 9.33496 14.7138 9.33496Z" fill="white"/>
<path d="M12 30C10.9391 30 9.92172 30.4214 9.17157 31.1716C8.42143 31.9217 8 32.9391 8 34C8 35.0609 8.42143 36.0783 9.17157 36.8284C9.92172 37.5786 10.9391 38 12 38C13.0609 38 14.0783 37.5786 14.8284 36.8284C15.5786 36.0783 16 35.0609 16 34C16 32.9391 15.5786 31.9217 14.8284 31.1716C14.0783 30.4214 13.0609 30 12 30Z" fill="#8B75A1"/>
<path d="M9 35.5C7.622 35.5 6.5 34.378 6.5 33V27.5H17.5V33C17.5 34.378 16.378 35.5 15 35.5H9Z" fill="#DCD5F2"/>
<path d="M17 28V33C17 34.103 16.103 35 15 35H9C7.897 35 7 34.103 7 33V28H17ZM18 27H6V33C6 34.657 7.343 36 9 36H15C16.657 36 18 34.657 18 33V27Z" fill="#8B75A1"/>
<path d="M11 33H17.488V34H11V33ZM6.56 33H9V34H6.56V33ZM11 31H18V32H11V31ZM6 31H9V32H6V31ZM11 29H18V30H11V29ZM6 29H9V30H6V29Z" fill="#8B75A1"/>
</svg>
