<svg width="32" height="32" viewBox="0 0 32 32" fill="none" xmlns="http://www.w3.org/2000/svg">
<path d="M15.158 31.5791C14.0894 31.5791 13.0982 31.1353 12.3664 30.3302L12.2957 30.2519L12.1963 30.2165C8.67887 28.9643 6.31592 25.6203 6.31592 21.8948V9.58409C6.31592 7.38198 8.10708 5.59082 10.3092 5.59082H20.0069C22.209 5.59082 24.0001 7.38198 24.0001 9.58409V21.8948C24.0001 25.6203 21.6372 28.9643 18.1206 30.2165L18.0212 30.2519L17.9505 30.3302C17.2178 31.1353 16.2267 31.5791 15.158 31.5791Z" fill="#F5CE85"/>
<path d="M20.0065 6.01203C21.9762 6.01203 23.5788 7.61456 23.5788 9.58424V21.895C23.5788 25.4428 21.3286 28.6276 17.9788 29.8209L17.78 29.8916L17.6385 30.0474C16.9867 30.7632 16.1051 31.1582 15.1577 31.1582C14.2103 31.1582 13.3286 30.7632 12.6769 30.0466L12.5354 29.8908L12.3366 29.82C8.98674 28.6276 6.73664 25.4428 6.73664 21.895V9.58424C6.73664 7.61456 8.33916 6.01203 10.3089 6.01203H20.0065ZM20.0065 5.16992H10.3089C7.87095 5.16992 5.89453 7.14634 5.89453 9.58424V21.895C5.89453 25.9203 8.46717 29.3367 12.0537 30.6142C12.8242 31.4596 13.9232 32.0003 15.1577 32.0003C16.3922 32.0003 17.4912 31.4596 18.2617 30.6133C21.8482 29.3358 24.4209 25.9203 24.4209 21.895V9.58424C24.4209 7.14634 22.4444 5.16992 20.0065 5.16992Z" fill="#967A44"/>
<path d="M25.2631 30.7367C22.917 30.7367 20.7511 29.8946 19.7103 29.418C21.0568 28.4748 23.9999 25.93 23.9999 21.7144V15.8996C23.9999 12.7215 20.5701 10.6702 20.4235 10.5843L20.0488 10.3636L19.8408 10.7468C19.8189 10.7872 17.5722 14.8058 11.9427 15.583C9.23278 15.9569 6.31572 17.882 6.31572 21.2243L7.15783 21.2942L6.31572 21.2748V21.7144C6.31572 25.9864 9.54267 28.6281 11.0509 29.6293C9.92246 30.0453 7.76499 30.7367 5.89467 30.7367C2.64077 30.7367 1.03993 29.2319 0.534668 28.6373C1.21425 27.7666 3.27825 24.9481 3.27825 22.8571C3.27825 21.7287 3.0172 20.4268 2.74099 19.05C2.42856 17.4921 2.1052 15.882 2.1052 14.3156C2.1052 5.61838 8.29804 0.420898 14.2854 0.420898C18.7831 0.420898 20.6711 3.54932 20.6888 3.58048L20.8117 3.78932H21.0526C24.9305 3.78932 29.0526 6.88827 29.0526 12.6314C29.0526 14.5001 28.6433 16.4622 28.2467 18.3594C27.904 20.0058 27.5789 21.5603 27.5789 22.8571C27.5789 25.4575 30.1978 27.7759 31.2943 28.6314C30.3469 29.2942 27.9722 30.7367 25.2631 30.7367Z" fill="#A6714E"/>
<path d="M14.2855 0.842106C18.5028 0.842106 20.256 3.67748 20.3259 3.79453L20.5701 4.21053H21.0526C24.7268 4.21053 28.6316 7.16211 28.6316 12.6316C28.6316 14.4564 28.2266 16.3975 27.835 18.2737C27.4872 19.9419 27.1579 21.5175 27.1579 22.8573C27.1579 25.3171 29.3011 27.5057 30.5861 28.5971C29.4914 29.2884 27.4889 30.3158 25.2632 30.3158C23.4089 30.3158 21.6649 29.7684 20.5423 29.3171C22.0724 28.0868 24.4211 25.5697 24.4211 21.7145V15.9006C24.4211 12.4842 20.7916 10.3124 20.6375 10.2215L19.8889 9.78527L19.4712 10.5449C19.3844 10.7023 17.2851 14.4202 11.8846 15.1663C8.99959 15.5646 5.89474 17.6303 5.89474 21.2244V21.2741V21.7137C5.89474 25.6118 8.45053 28.2063 10.1457 29.499C8.98611 29.8813 7.34485 30.3158 5.89474 30.3158C3.20674 30.3158 1.72211 29.2388 1.08632 28.6122C1.94695 27.472 3.69937 24.9011 3.69937 22.8573C3.69937 21.6868 3.43411 20.3655 3.15369 18.9676C2.84548 17.4299 2.52632 15.8409 2.52632 14.3158C2.52632 5.88211 8.50527 0.842106 14.2855 0.842106ZM14.2855 0C8.02527 0 1.68421 5.44927 1.68421 14.3158C1.68421 17.3356 2.85727 20.5322 2.85727 22.8573C2.85727 25.1823 0 28.6316 0 28.6316C0 28.6316 1.62105 31.1579 5.89474 31.1579C8.67622 31.1579 11.9966 29.7103 11.9966 29.7103C11.9966 29.7103 6.73685 26.9769 6.73685 21.7145C6.73685 21.3406 6.73685 21.275 6.73685 21.275V21.2943C6.73685 21.2943 6.73685 21.28 6.73685 21.2244C6.73685 18.1272 9.46696 16.3503 12 16C17.9268 15.1815 20.2105 10.9474 20.2105 10.9474C20.2105 10.9474 23.579 12.9263 23.579 15.9006C23.579 17.1865 23.579 19.6034 23.579 21.7145C23.579 26.8767 18.8573 29.4636 18.8573 29.4636C18.8573 29.4636 21.8484 31.1579 25.2632 31.1579C28.9617 31.1579 32 28.6316 32 28.6316C32 28.6316 28 25.8914 28 22.8573C28 20.1617 29.4737 16.2046 29.4737 12.6316C29.4737 6.57179 25.0324 3.36842 21.0526 3.36842C21.0526 3.36842 19.0754 0 14.2855 0Z" fill="#7A4F34"/>
<path d="M19.7895 18.5264C19.4545 18.5264 19.1332 18.6595 18.8963 18.8963C18.6594 19.1332 18.5263 19.4545 18.5263 19.7895C18.5263 20.1245 18.6594 20.4458 18.8963 20.6827C19.1332 20.9196 19.4545 21.0527 19.7895 21.0527C20.1245 21.0527 20.4458 20.9196 20.6827 20.6827C20.9196 20.4458 21.0527 20.1245 21.0527 19.7895C21.0527 19.4545 20.9196 19.1332 20.6827 18.8963C20.4458 18.6595 20.1245 18.5264 19.7895 18.5264ZM10.5263 18.5264C10.1913 18.5264 9.87004 18.6595 9.63315 18.8963C9.39627 19.1332 9.26318 19.4545 9.26318 19.7895C9.26318 20.1245 9.39627 20.4458 9.63315 20.6827C9.87004 20.9196 10.1913 21.0527 10.5263 21.0527C10.8614 21.0527 11.1826 20.9196 11.4195 20.6827C11.6564 20.4458 11.7895 20.1245 11.7895 19.7895C11.7895 19.4545 11.6564 19.1332 11.4195 18.8963C11.1826 18.6595 10.8614 18.5264 10.5263 18.5264Z" fill="#36404D"/>
<path d="M23.9569 13.6773C22.6542 13.1965 19.4558 12.2104 15.1577 12.2104C10.8015 12.2104 7.58973 12.7199 6.35352 12.9514L7.07352 2.74174C7.69078 2.27943 10.4638 0.420898 15.1577 0.420898C19.8491 0.420898 22.6213 2.2769 23.2411 2.7409L23.9569 13.6773Z" fill="white"/>
<path d="M15.1577 0.842106C19.4103 0.842106 22.031 2.4059 22.8335 2.9659L23.4954 13.072C21.9122 12.5499 18.9522 11.7895 15.1577 11.7895C11.3 11.7895 8.32569 12.187 6.81158 12.443L7.47937 2.96758C8.28274 2.40674 10.9042 0.842106 15.1577 0.842106ZM15.1577 0C9.58043 0 6.66674 2.52632 6.66674 2.52632L5.89453 13.4737C5.89453 13.4737 9.62253 12.6316 15.1577 12.6316C20.6929 12.6316 24.4209 14.3158 24.4209 14.3158L23.6487 2.52632C23.6487 2.52632 20.735 0 15.1577 0Z" fill="#788B9C"/>
<path d="M15.158 10.1055V3.36865M11.7896 6.73708H18.5264" stroke="#C74343" stroke-width="2"/>
</svg>
