<svg width="20" height="20" viewBox="0 0 20 20" fill="none" xmlns="http://www.w3.org/2000/svg">
<path d="M9.8479 1.00008C4.8863 1.00008 0.8479 5.03846 0.8479 10C0.8479 14.9616 4.8863 19 9.8479 19C14.8095 19 18.8479 14.9616 18.8479 10C18.8479 6.89526 17.2713 4.15018 14.8723 2.5323L15.7322 1.42927L12.0979 1.29744L13.1467 4.75006L13.9436 3.72614C15.7935 4.93544 17.0774 6.93196 17.3069 9.25151C17.1154 9.26199 16.9352 9.34542 16.8034 9.48463C16.6715 9.62385 16.598 9.80829 16.5979 10C16.598 10.1925 16.6722 10.3776 16.805 10.5169C16.9378 10.6562 17.119 10.7392 17.3113 10.7486C16.9611 14.2994 14.1472 17.1132 10.5964 17.4634C10.587 17.2711 10.5041 17.0899 10.3648 16.9571C10.2254 16.8243 10.0404 16.7502 9.8479 16.75C9.65543 16.7502 9.47038 16.8243 9.33104 16.9571C9.19171 17.0899 9.10876 17.2711 9.09937 17.4634C5.54857 17.1132 2.73469 14.2994 2.38452 10.7486C2.57677 10.7392 2.75804 10.6562 2.89083 10.5169C3.02362 10.3776 3.09775 10.1925 3.0979 10C3.09775 9.80756 3.02362 9.62251 2.89083 9.48318C2.75804 9.34385 2.57677 9.2609 2.38452 9.25151C2.75899 5.45427 5.94999 2.50007 9.8479 2.50007C9.94728 2.50147 10.046 2.48311 10.1382 2.44605C10.2304 2.40899 10.3143 2.35397 10.3851 2.28419C10.4559 2.21441 10.5121 2.13125 10.5505 2.03956C10.5888 1.94787 10.6086 1.84947 10.6086 1.75007C10.6086 1.65068 10.5888 1.55228 10.5505 1.46058C10.5121 1.36889 10.4559 1.28574 10.3851 1.21595C10.3143 1.14617 10.2304 1.09115 10.1382 1.05409C10.046 1.01703 9.94728 0.998669 9.8479 1.00008ZM9.83618 4.73981C9.63753 4.74291 9.44822 4.82471 9.3098 4.96724C9.17139 5.10977 9.09518 5.3014 9.0979 5.50006V9.62504L6.39819 11.6494C6.23891 11.7687 6.13353 11.9464 6.10523 12.1433C6.07694 12.3403 6.12804 12.5404 6.24731 12.6997C6.36658 12.859 6.54424 12.9644 6.74121 12.9927C6.93818 13.021 7.13832 12.9699 7.29761 12.8506L10.2976 10.6006C10.3909 10.5307 10.4666 10.4401 10.5187 10.3358C10.5708 10.2316 10.598 10.1166 10.5979 10V5.50006C10.5993 5.39971 10.5805 5.30012 10.5427 5.20716C10.5049 5.11421 10.4488 5.02979 10.3778 4.95889C10.3067 4.888 10.2222 4.83209 10.1292 4.79445C10.0362 4.75682 9.93652 4.73824 9.83618 4.73981Z" fill="#C6CEDF" stroke="#C6CEDF" stroke-width="0.5"/>
</svg>
